<mxfile host="app.diagrams.net" modified="2024-04-04T03:41:28.938Z" agent="Mozilla/5.0 (Windows NT 10.0; Win64; x64) AppleWebKit/537.36 (KHTML, like Gecko) Chrome/122.0.0.0 Whale/3.25.232.19 Safari/537.36" etag="-HLxYScLM3itxxkurmDr" version="24.2.1" type="device">
  <diagram name="페이지-1" id="xPmb63chEDnu7miwvUKR">
    <mxGraphModel dx="5576" dy="7519" grid="1" gridSize="10" guides="1" tooltips="1" connect="1" arrows="1" fold="1" page="1" pageScale="1" pageWidth="827" pageHeight="1169" math="0" shadow="0">
      <root>
        <mxCell id="0" />
        <mxCell id="1" parent="0" />
        <mxCell id="7k5xXv0gscj0csPlmndP-229" value="Skill_APS_Projectile" style="rounded=0;whiteSpace=wrap;html=1;fillColor=#CCCCCC;labelPosition=center;verticalLabelPosition=top;align=center;verticalAlign=bottom;" parent="1" vertex="1">
          <mxGeometry x="1291" y="-2779.97" width="279" height="140" as="geometry" />
        </mxCell>
        <mxCell id="7k5xXv0gscj0csPlmndP-230" value="Skill_Dron_Around_Attack" style="rounded=0;whiteSpace=wrap;html=1;fillColor=#CCCCCC;labelPosition=center;verticalLabelPosition=top;align=center;verticalAlign=bottom;" parent="1" vertex="1">
          <mxGeometry x="1291" y="-2569.97" width="279" height="180.15" as="geometry" />
        </mxCell>
        <mxCell id="7k5xXv0gscj0csPlmndP-231" value="Skill_Dron_Around_Recon" style="rounded=0;whiteSpace=wrap;html=1;fillColor=#CCCCCC;labelPosition=center;verticalLabelPosition=top;align=center;verticalAlign=bottom;" parent="1" vertex="1">
          <mxGeometry x="1291" y="-2339.97" width="279" height="80" as="geometry" />
        </mxCell>
        <mxCell id="7k5xXv0gscj0csPlmndP-232" value="Skill_Dron_Around_Suicide" style="rounded=0;whiteSpace=wrap;html=1;fillColor=#CCCCCC;labelPosition=center;verticalLabelPosition=top;align=center;verticalAlign=bottom;" parent="1" vertex="1">
          <mxGeometry x="1287" y="-2199.97" width="283" height="80" as="geometry" />
        </mxCell>
        <mxCell id="7k5xXv0gscj0csPlmndP-233" value="Skill_Smoke_Gas" style="rounded=0;whiteSpace=wrap;html=1;fillColor=#CCCCCC;labelPosition=center;verticalLabelPosition=top;align=center;verticalAlign=bottom;" parent="1" vertex="1">
          <mxGeometry x="1291" y="-3489.97" width="259" height="140" as="geometry" />
        </mxCell>
        <mxCell id="7k5xXv0gscj0csPlmndP-234" value="Skill_WP_Projectile" style="rounded=0;whiteSpace=wrap;html=1;fillColor=#CCCCCC;labelPosition=center;verticalLabelPosition=top;align=center;verticalAlign=bottom;" parent="1" vertex="1">
          <mxGeometry x="1291" y="-3139.97" width="279" height="140" as="geometry" />
        </mxCell>
        <mxCell id="7k5xXv0gscj0csPlmndP-235" value="Skill_WP_Explosion" style="rounded=0;whiteSpace=wrap;html=1;fillColor=#CCCCCC;labelPosition=center;verticalLabelPosition=top;align=center;verticalAlign=bottom;" parent="1" vertex="1">
          <mxGeometry x="1620" y="-2949.97" width="270" height="80" as="geometry" />
        </mxCell>
        <mxCell id="7k5xXv0gscj0csPlmndP-236" value="Skill_WP_Floor" style="rounded=0;whiteSpace=wrap;html=1;fillColor=#CCCCCC;labelPosition=center;verticalLabelPosition=top;align=center;verticalAlign=bottom;" parent="1" vertex="1">
          <mxGeometry x="1620" y="-3109.97" width="270" height="80" as="geometry" />
        </mxCell>
        <mxCell id="7k5xXv0gscj0csPlmndP-220" value="Obstacle" style="rounded=0;whiteSpace=wrap;html=1;fillColor=#CCCCCC;labelPosition=center;verticalLabelPosition=top;align=center;verticalAlign=bottom;" parent="1" vertex="1">
          <mxGeometry x="1630" y="-4234.97" width="250" height="90" as="geometry" />
        </mxCell>
        <mxCell id="7k5xXv0gscj0csPlmndP-221" value="Enemy" style="rounded=0;whiteSpace=wrap;html=1;fillColor=#CCCCCC;labelPosition=center;verticalLabelPosition=top;align=center;verticalAlign=bottom;" parent="1" vertex="1">
          <mxGeometry x="1553" y="-3999.97" width="407" height="359.97" as="geometry" />
        </mxCell>
        <mxCell id="7k5xXv0gscj0csPlmndP-222" value="EnemySpawner" style="rounded=0;whiteSpace=wrap;html=1;fillColor=#CCCCCC;labelPosition=center;verticalLabelPosition=top;align=center;verticalAlign=bottom;strokeColor=default;" parent="1" vertex="1">
          <mxGeometry x="2050" y="-3920" width="270" height="200" as="geometry" />
        </mxCell>
        <mxCell id="7k5xXv0gscj0csPlmndP-218" value="Player" style="rounded=0;whiteSpace=wrap;html=1;fillColor=#CCCCCC;labelPosition=center;verticalLabelPosition=top;align=center;verticalAlign=bottom;" parent="1" vertex="1">
          <mxGeometry x="703" y="-4629.97" width="490" height="2510" as="geometry" />
        </mxCell>
        <mxCell id="7k5xXv0gscj0csPlmndP-215" value="Item_Heal" style="rounded=0;whiteSpace=wrap;html=1;fillColor=#CCCCCC;labelPosition=center;verticalLabelPosition=top;align=center;verticalAlign=bottom;" parent="1" vertex="1">
          <mxGeometry x="90" y="-4329.93" width="240" height="80" as="geometry" />
        </mxCell>
        <mxCell id="7k5xXv0gscj0csPlmndP-216" value="Item_Magnetic" style="rounded=0;whiteSpace=wrap;html=1;fillColor=#CCCCCC;labelPosition=center;verticalLabelPosition=top;align=center;verticalAlign=bottom;" parent="1" vertex="1">
          <mxGeometry x="90" y="-4650" width="240" height="80" as="geometry" />
        </mxCell>
        <mxCell id="7k5xXv0gscj0csPlmndP-217" value="Item_EXP" style="rounded=0;whiteSpace=wrap;html=1;fillColor=#CCCCCC;labelPosition=center;verticalLabelPosition=top;align=center;verticalAlign=bottom;" parent="1" vertex="1">
          <mxGeometry x="90" y="-4523.08" width="240" height="150" as="geometry" />
        </mxCell>
        <mxCell id="7k5xXv0gscj0csPlmndP-214" value="Effect" style="rounded=0;whiteSpace=wrap;html=1;fillColor=#CCCCCC;labelPosition=center;verticalLabelPosition=top;align=center;verticalAlign=bottom;" parent="1" vertex="1">
          <mxGeometry x="-560" y="-3989.97" width="240" height="160" as="geometry" />
        </mxCell>
        <mxCell id="7k5xXv0gscj0csPlmndP-213" value="Manager" style="rounded=0;whiteSpace=wrap;html=1;fillColor=#CCCCCC;labelPosition=center;verticalLabelPosition=top;align=center;verticalAlign=bottom;strokeColor=#666666;fontColor=#333333;" parent="1" vertex="1">
          <mxGeometry x="-800" y="-4649.97" width="777" height="605" as="geometry" />
        </mxCell>
        <mxCell id="0xGlbApnoTyR-Ioo5-qS-2" value="GameManager" style="swimlane;fontStyle=0;childLayout=stackLayout;horizontal=1;startSize=30;horizontalStack=0;resizeParent=1;resizeParentMax=0;resizeLast=0;collapsible=1;marginBottom=0;whiteSpace=wrap;html=1;" parent="1" vertex="1">
          <mxGeometry x="-780" y="-4619.97" width="210" height="210" as="geometry" />
        </mxCell>
        <mxCell id="0xGlbApnoTyR-Ioo5-qS-3" value="&lt;span style=&quot;text-align: center;&quot;&gt;// 싱글톤&lt;/span&gt;" style="text;align=left;verticalAlign=middle;spacingLeft=4;spacingRight=4;overflow=hidden;points=[[0,0.5],[1,0.5]];portConstraint=eastwest;rotatable=0;whiteSpace=wrap;html=1;fillColor=default;" parent="0xGlbApnoTyR-Ioo5-qS-2" vertex="1">
          <mxGeometry y="30" width="210" height="30" as="geometry" />
        </mxCell>
        <mxCell id="0xGlbApnoTyR-Ioo5-qS-4" value="+GetDamageData(WeaponKind, int)" style="text;align=left;verticalAlign=middle;spacingLeft=4;spacingRight=4;overflow=hidden;points=[[0,0.5],[1,0.5]];portConstraint=eastwest;rotatable=0;whiteSpace=wrap;html=1;fillColor=default;" parent="0xGlbApnoTyR-Ioo5-qS-2" vertex="1">
          <mxGeometry y="60" width="210" height="30" as="geometry" />
        </mxCell>
        <mxCell id="0xGlbApnoTyR-Ioo5-qS-5" value="-SetGameTimeStart()" style="text;align=left;verticalAlign=middle;spacingLeft=4;spacingRight=4;overflow=hidden;points=[[0,0.5],[1,0.5]];portConstraint=eastwest;rotatable=0;whiteSpace=wrap;html=1;fillColor=default;" parent="0xGlbApnoTyR-Ioo5-qS-2" vertex="1">
          <mxGeometry y="90" width="210" height="30" as="geometry" />
        </mxCell>
        <mxCell id="0xGlbApnoTyR-Ioo5-qS-6" value="-SetGameTime()" style="text;align=left;verticalAlign=middle;spacingLeft=4;spacingRight=4;overflow=hidden;points=[[0,0.5],[1,0.5]];portConstraint=eastwest;rotatable=0;whiteSpace=wrap;html=1;fillColor=default;" parent="0xGlbApnoTyR-Ioo5-qS-2" vertex="1">
          <mxGeometry y="120" width="210" height="30" as="geometry" />
        </mxCell>
        <mxCell id="0xGlbApnoTyR-Ioo5-qS-7" value="+Cursor_Game()" style="text;align=left;verticalAlign=middle;spacingLeft=4;spacingRight=4;overflow=hidden;points=[[0,0.5],[1,0.5]];portConstraint=eastwest;rotatable=0;whiteSpace=wrap;html=1;fillColor=default;" parent="0xGlbApnoTyR-Ioo5-qS-2" vertex="1">
          <mxGeometry y="150" width="210" height="30" as="geometry" />
        </mxCell>
        <mxCell id="0xGlbApnoTyR-Ioo5-qS-8" value="+Cursor_Menu()" style="text;align=left;verticalAlign=middle;spacingLeft=4;spacingRight=4;overflow=hidden;points=[[0,0.5],[1,0.5]];portConstraint=eastwest;rotatable=0;whiteSpace=wrap;html=1;fillColor=default;" parent="0xGlbApnoTyR-Ioo5-qS-2" vertex="1">
          <mxGeometry y="180" width="210" height="30" as="geometry" />
        </mxCell>
        <mxCell id="0xGlbApnoTyR-Ioo5-qS-9" value="GUIManager" style="swimlane;fontStyle=0;childLayout=stackLayout;horizontal=1;startSize=30;horizontalStack=0;resizeParent=1;resizeParentMax=0;resizeLast=0;collapsible=1;marginBottom=0;whiteSpace=wrap;html=1;" parent="1" vertex="1">
          <mxGeometry x="-538" y="-4619.97" width="210" height="360" as="geometry" />
        </mxCell>
        <mxCell id="0xGlbApnoTyR-Ioo5-qS-10" value="&lt;span style=&quot;text-align: center;&quot;&gt;// 싱글톤&lt;/span&gt;" style="text;strokeColor=none;fillColor=default;align=left;verticalAlign=middle;spacingLeft=4;spacingRight=4;overflow=hidden;points=[[0,0.5],[1,0.5]];portConstraint=eastwest;rotatable=0;whiteSpace=wrap;html=1;" parent="0xGlbApnoTyR-Ioo5-qS-9" vertex="1">
          <mxGeometry y="30" width="210" height="30" as="geometry" />
        </mxCell>
        <mxCell id="0xGlbApnoTyR-Ioo5-qS-11" value="+ShowGameTime(int, int)" style="text;strokeColor=none;fillColor=default;align=left;verticalAlign=middle;spacingLeft=4;spacingRight=4;overflow=hidden;points=[[0,0.5],[1,0.5]];portConstraint=eastwest;rotatable=0;whiteSpace=wrap;html=1;" parent="0xGlbApnoTyR-Ioo5-qS-9" vertex="1">
          <mxGeometry y="60" width="210" height="30" as="geometry" />
        </mxCell>
        <mxCell id="0xGlbApnoTyR-Ioo5-qS-16" value="-Velocity_GUI()" style="text;strokeColor=none;fillColor=default;align=left;verticalAlign=middle;spacingLeft=4;spacingRight=4;overflow=hidden;points=[[0,0.5],[1,0.5]];portConstraint=eastwest;rotatable=0;whiteSpace=wrap;html=1;" parent="0xGlbApnoTyR-Ioo5-qS-9" vertex="1">
          <mxGeometry y="90" width="210" height="30" as="geometry" />
        </mxCell>
        <mxCell id="0xGlbApnoTyR-Ioo5-qS-17" value="+Active_Smoke()" style="text;strokeColor=none;fillColor=default;align=left;verticalAlign=middle;spacingLeft=4;spacingRight=4;overflow=hidden;points=[[0,0.5],[1,0.5]];portConstraint=eastwest;rotatable=0;whiteSpace=wrap;html=1;" parent="0xGlbApnoTyR-Ioo5-qS-9" vertex="1">
          <mxGeometry y="120" width="210" height="30" as="geometry" />
        </mxCell>
        <mxCell id="0xGlbApnoTyR-Ioo5-qS-18" value="+Active_WP()" style="text;strokeColor=none;fillColor=default;align=left;verticalAlign=middle;spacingLeft=4;spacingRight=4;overflow=hidden;points=[[0,0.5],[1,0.5]];portConstraint=eastwest;rotatable=0;whiteSpace=wrap;html=1;" parent="0xGlbApnoTyR-Ioo5-qS-9" vertex="1">
          <mxGeometry y="150" width="210" height="30" as="geometry" />
        </mxCell>
        <mxCell id="0xGlbApnoTyR-Ioo5-qS-19" value="+Active_APS_L()" style="text;strokeColor=none;fillColor=default;align=left;verticalAlign=middle;spacingLeft=4;spacingRight=4;overflow=hidden;points=[[0,0.5],[1,0.5]];portConstraint=eastwest;rotatable=0;whiteSpace=wrap;html=1;" parent="0xGlbApnoTyR-Ioo5-qS-9" vertex="1">
          <mxGeometry y="180" width="210" height="30" as="geometry" />
        </mxCell>
        <mxCell id="0xGlbApnoTyR-Ioo5-qS-20" value="+Active_APS_R()" style="text;strokeColor=none;fillColor=default;align=left;verticalAlign=middle;spacingLeft=4;spacingRight=4;overflow=hidden;points=[[0,0.5],[1,0.5]];portConstraint=eastwest;rotatable=0;whiteSpace=wrap;html=1;" parent="0xGlbApnoTyR-Ioo5-qS-9" vertex="1">
          <mxGeometry y="210" width="210" height="30" as="geometry" />
        </mxCell>
        <mxCell id="0xGlbApnoTyR-Ioo5-qS-21" value="+Wait_Smoke(float)" style="text;strokeColor=none;fillColor=default;align=left;verticalAlign=middle;spacingLeft=4;spacingRight=4;overflow=hidden;points=[[0,0.5],[1,0.5]];portConstraint=eastwest;rotatable=0;whiteSpace=wrap;html=1;" parent="0xGlbApnoTyR-Ioo5-qS-9" vertex="1">
          <mxGeometry y="240" width="210" height="30" as="geometry" />
        </mxCell>
        <mxCell id="0xGlbApnoTyR-Ioo5-qS-22" value="+Wait_WP&lt;span style=&quot;background-color: initial;&quot;&gt;(float)&lt;/span&gt;" style="text;strokeColor=none;fillColor=default;align=left;verticalAlign=middle;spacingLeft=4;spacingRight=4;overflow=hidden;points=[[0,0.5],[1,0.5]];portConstraint=eastwest;rotatable=0;whiteSpace=wrap;html=1;" parent="0xGlbApnoTyR-Ioo5-qS-9" vertex="1">
          <mxGeometry y="270" width="210" height="30" as="geometry" />
        </mxCell>
        <mxCell id="0xGlbApnoTyR-Ioo5-qS-23" value="+Wait_APS_L&lt;span style=&quot;background-color: initial;&quot;&gt;(float)&lt;/span&gt;" style="text;strokeColor=none;fillColor=default;align=left;verticalAlign=middle;spacingLeft=4;spacingRight=4;overflow=hidden;points=[[0,0.5],[1,0.5]];portConstraint=eastwest;rotatable=0;whiteSpace=wrap;html=1;" parent="0xGlbApnoTyR-Ioo5-qS-9" vertex="1">
          <mxGeometry y="300" width="210" height="30" as="geometry" />
        </mxCell>
        <mxCell id="0xGlbApnoTyR-Ioo5-qS-24" value="+Wait_APS_R&lt;span style=&quot;background-color: initial;&quot;&gt;(float)&lt;/span&gt;" style="text;strokeColor=none;fillColor=default;align=left;verticalAlign=middle;spacingLeft=4;spacingRight=4;overflow=hidden;points=[[0,0.5],[1,0.5]];portConstraint=eastwest;rotatable=0;whiteSpace=wrap;html=1;" parent="0xGlbApnoTyR-Ioo5-qS-9" vertex="1">
          <mxGeometry y="330" width="210" height="30" as="geometry" />
        </mxCell>
        <mxCell id="0xGlbApnoTyR-Ioo5-qS-25" value="EffectManager" style="swimlane;fontStyle=0;childLayout=stackLayout;horizontal=1;startSize=30;horizontalStack=0;resizeParent=1;resizeParentMax=0;resizeLast=0;collapsible=1;marginBottom=0;whiteSpace=wrap;html=1;" parent="1" vertex="1">
          <mxGeometry x="-299" y="-4199.97" width="250" height="120" as="geometry" />
        </mxCell>
        <mxCell id="0xGlbApnoTyR-Ioo5-qS-26" value="&lt;span style=&quot;text-align: center;&quot;&gt;// 싱글톤&lt;/span&gt;" style="text;strokeColor=none;fillColor=default;align=left;verticalAlign=middle;spacingLeft=4;spacingRight=4;overflow=hidden;points=[[0,0.5],[1,0.5]];portConstraint=eastwest;rotatable=0;whiteSpace=wrap;html=1;" parent="0xGlbApnoTyR-Ioo5-qS-25" vertex="1">
          <mxGeometry y="30" width="250" height="30" as="geometry" />
        </mxCell>
        <mxCell id="0xGlbApnoTyR-Ioo5-qS-27" value="+GetPooledObject(EffectKind): GameObject&amp;nbsp;" style="text;strokeColor=none;fillColor=default;align=left;verticalAlign=middle;spacingLeft=4;spacingRight=4;overflow=hidden;points=[[0,0.5],[1,0.5]];portConstraint=eastwest;rotatable=0;whiteSpace=wrap;html=1;" parent="0xGlbApnoTyR-Ioo5-qS-25" vertex="1">
          <mxGeometry y="60" width="250" height="30" as="geometry" />
        </mxCell>
        <mxCell id="0xGlbApnoTyR-Ioo5-qS-28" value="+ReturnToPool(EffectKind, GameObject)" style="text;strokeColor=none;fillColor=default;align=left;verticalAlign=middle;spacingLeft=4;spacingRight=4;overflow=hidden;points=[[0,0.5],[1,0.5]];portConstraint=eastwest;rotatable=0;whiteSpace=wrap;html=1;" parent="0xGlbApnoTyR-Ioo5-qS-25" vertex="1">
          <mxGeometry y="90" width="250" height="30" as="geometry" />
        </mxCell>
        <mxCell id="0xGlbApnoTyR-Ioo5-qS-37" value="EffectPool_Explosion: IEffect" style="swimlane;fontStyle=0;childLayout=stackLayout;horizontal=1;startSize=30;horizontalStack=0;resizeParent=1;resizeParentMax=0;resizeLast=0;collapsible=1;marginBottom=0;whiteSpace=wrap;html=1;" parent="1" vertex="1">
          <mxGeometry x="-545" y="-4199.97" width="210" height="120" as="geometry" />
        </mxCell>
        <mxCell id="0xGlbApnoTyR-Ioo5-qS-39" value="+GetPooledObject(): GameObject" style="text;strokeColor=none;fillColor=default;align=left;verticalAlign=middle;spacingLeft=4;spacingRight=4;overflow=hidden;points=[[0,0.5],[1,0.5]];portConstraint=eastwest;rotatable=0;whiteSpace=wrap;html=1;" parent="0xGlbApnoTyR-Ioo5-qS-37" vertex="1">
          <mxGeometry y="30" width="210" height="30" as="geometry" />
        </mxCell>
        <mxCell id="0xGlbApnoTyR-Ioo5-qS-49" value="+CreateAndEnqueueObject()" style="text;strokeColor=none;fillColor=default;align=left;verticalAlign=middle;spacingLeft=4;spacingRight=4;overflow=hidden;points=[[0,0.5],[1,0.5]];portConstraint=eastwest;rotatable=0;whiteSpace=wrap;html=1;" parent="0xGlbApnoTyR-Ioo5-qS-37" vertex="1">
          <mxGeometry y="60" width="210" height="30" as="geometry" />
        </mxCell>
        <mxCell id="0xGlbApnoTyR-Ioo5-qS-50" value="+ReturnToPool(GameObject)" style="text;strokeColor=none;fillColor=default;align=left;verticalAlign=middle;spacingLeft=4;spacingRight=4;overflow=hidden;points=[[0,0.5],[1,0.5]];portConstraint=eastwest;rotatable=0;whiteSpace=wrap;html=1;" parent="0xGlbApnoTyR-Ioo5-qS-37" vertex="1">
          <mxGeometry y="90" width="210" height="30" as="geometry" />
        </mxCell>
        <mxCell id="0xGlbApnoTyR-Ioo5-qS-51" value="&lt;div&gt;&amp;lt;&amp;lt;interface&amp;gt;&amp;gt;&lt;/div&gt;IEffect" style="swimlane;fontStyle=0;childLayout=stackLayout;horizontal=1;startSize=30;horizontalStack=0;resizeParent=1;resizeParentMax=0;resizeLast=0;collapsible=1;marginBottom=0;whiteSpace=wrap;html=1;" parent="1" vertex="1">
          <mxGeometry x="-279" y="-3989.97" width="210" height="60" as="geometry" />
        </mxCell>
        <mxCell id="0xGlbApnoTyR-Ioo5-qS-55" value="ReturnToPool(GameObject)" style="text;strokeColor=none;fillColor=default;align=left;verticalAlign=middle;spacingLeft=4;spacingRight=4;overflow=hidden;points=[[0,0.5],[1,0.5]];portConstraint=eastwest;rotatable=0;whiteSpace=wrap;html=1;" parent="0xGlbApnoTyR-Ioo5-qS-51" vertex="1">
          <mxGeometry y="30" width="210" height="30" as="geometry" />
        </mxCell>
        <mxCell id="0xGlbApnoTyR-Ioo5-qS-56" value="ItemManager&lt;br&gt;// singleton" style="swimlane;fontStyle=0;childLayout=stackLayout;horizontal=1;startSize=30;horizontalStack=0;resizeParent=1;resizeParentMax=0;resizeLast=0;collapsible=1;marginBottom=0;whiteSpace=wrap;html=1;" parent="1" vertex="1">
          <mxGeometry x="-294" y="-4619.97" width="260" height="180" as="geometry" />
        </mxCell>
        <mxCell id="0xGlbApnoTyR-Ioo5-qS-57" value="&lt;span style=&quot;text-align: center;&quot;&gt;// 싱글톤&lt;/span&gt;" style="text;align=left;verticalAlign=middle;spacingLeft=4;spacingRight=4;overflow=hidden;points=[[0,0.5],[1,0.5]];portConstraint=eastwest;rotatable=0;whiteSpace=wrap;html=1;fillColor=default;" parent="0xGlbApnoTyR-Ioo5-qS-56" vertex="1">
          <mxGeometry y="30" width="260" height="30" as="geometry" />
        </mxCell>
        <mxCell id="0xGlbApnoTyR-Ioo5-qS-58" value="-Spawn_Heal()" style="text;align=left;verticalAlign=middle;spacingLeft=4;spacingRight=4;overflow=hidden;points=[[0,0.5],[1,0.5]];portConstraint=eastwest;rotatable=0;whiteSpace=wrap;html=1;fillColor=default;" parent="0xGlbApnoTyR-Ioo5-qS-56" vertex="1">
          <mxGeometry y="60" width="260" height="30" as="geometry" />
        </mxCell>
        <mxCell id="0xGlbApnoTyR-Ioo5-qS-59" value="-Spawn_Magnetic()" style="text;align=left;verticalAlign=middle;spacingLeft=4;spacingRight=4;overflow=hidden;points=[[0,0.5],[1,0.5]];portConstraint=eastwest;rotatable=0;whiteSpace=wrap;html=1;fillColor=default;" parent="0xGlbApnoTyR-Ioo5-qS-56" vertex="1">
          <mxGeometry y="90" width="260" height="30" as="geometry" />
        </mxCell>
        <mxCell id="0xGlbApnoTyR-Ioo5-qS-63" value="-GetRandomNavMeshPosition(): Vector3" style="text;align=left;verticalAlign=middle;spacingLeft=4;spacingRight=4;overflow=hidden;points=[[0,0.5],[1,0.5]];portConstraint=eastwest;rotatable=0;whiteSpace=wrap;html=1;fillColor=default;" parent="0xGlbApnoTyR-Ioo5-qS-56" vertex="1">
          <mxGeometry y="120" width="260" height="30" as="geometry" />
        </mxCell>
        <mxCell id="0xGlbApnoTyR-Ioo5-qS-64" value="-RandomPointInCircle(int, int, int, int): Vector3" style="text;align=left;verticalAlign=middle;spacingLeft=4;spacingRight=4;overflow=hidden;points=[[0,0.5],[1,0.5]];portConstraint=eastwest;rotatable=0;whiteSpace=wrap;html=1;fillColor=default;" parent="0xGlbApnoTyR-Ioo5-qS-56" vertex="1">
          <mxGeometry y="150" width="260" height="30" as="geometry" />
        </mxCell>
        <mxCell id="0xGlbApnoTyR-Ioo5-qS-67" value="Billboard&lt;div&gt;&lt;/div&gt;" style="swimlane;fontStyle=0;childLayout=stackLayout;horizontal=1;startSize=30;horizontalStack=0;resizeParent=1;resizeParentMax=0;resizeLast=0;collapsible=1;marginBottom=0;whiteSpace=wrap;html=1;" parent="1" vertex="1">
          <mxGeometry x="-545" y="-3979.97" width="210" height="60" as="geometry" />
        </mxCell>
        <mxCell id="0xGlbApnoTyR-Ioo5-qS-70" value="EffectController&lt;div&gt;&lt;/div&gt;" style="swimlane;fontStyle=0;childLayout=stackLayout;horizontal=1;startSize=30;horizontalStack=0;resizeParent=1;resizeParentMax=0;resizeLast=0;collapsible=1;marginBottom=0;whiteSpace=wrap;html=1;" parent="1" vertex="1">
          <mxGeometry x="-545" y="-3899.97" width="210" height="60" as="geometry" />
        </mxCell>
        <mxCell id="0xGlbApnoTyR-Ioo5-qS-71" value="-Disapear():&amp;nbsp;IEnumerator" style="text;strokeColor=none;fillColor=default;align=left;verticalAlign=middle;spacingLeft=4;spacingRight=4;overflow=hidden;points=[[0,0.5],[1,0.5]];portConstraint=eastwest;rotatable=0;whiteSpace=wrap;html=1;" parent="0xGlbApnoTyR-Ioo5-qS-70" vertex="1">
          <mxGeometry y="30" width="210" height="30" as="geometry" />
        </mxCell>
        <mxCell id="0xGlbApnoTyR-Ioo5-qS-72" value="PlayerManager" style="swimlane;fontStyle=0;childLayout=stackLayout;horizontal=1;startSize=30;horizontalStack=0;resizeParent=1;resizeParentMax=0;resizeLast=0;collapsible=1;marginBottom=0;whiteSpace=wrap;html=1;" parent="1" vertex="1">
          <mxGeometry x="728" y="-4599.97" width="440" height="300" as="geometry" />
        </mxCell>
        <mxCell id="0xGlbApnoTyR-Ioo5-qS-73" value="&lt;span style=&quot;text-align: center;&quot;&gt;// 싱글톤&lt;/span&gt;" style="text;strokeColor=none;fillColor=default;align=left;verticalAlign=middle;spacingLeft=4;spacingRight=4;overflow=hidden;points=[[0,0.5],[1,0.5]];portConstraint=eastwest;rotatable=0;whiteSpace=wrap;html=1;" parent="0xGlbApnoTyR-Ioo5-qS-72" vertex="1">
          <mxGeometry y="30" width="440" height="30" as="geometry" />
        </mxCell>
        <mxCell id="0xGlbApnoTyR-Ioo5-qS-74" value="+SendDamage_P2E(Health, int, WeaponKind, DamageKind, float)" style="text;strokeColor=none;fillColor=default;align=left;verticalAlign=middle;spacingLeft=4;spacingRight=4;overflow=hidden;points=[[0,0.5],[1,0.5]];portConstraint=eastwest;rotatable=0;whiteSpace=wrap;html=1;" parent="0xGlbApnoTyR-Ioo5-qS-72" vertex="1">
          <mxGeometry y="60" width="440" height="30" as="geometry" />
        </mxCell>
        <mxCell id="0xGlbApnoTyR-Ioo5-qS-84" value="+SendDamage_P2E(Vector3, int, WeaponKind, DamageKind, float, int, Vector3)" style="text;strokeColor=none;fillColor=default;align=left;verticalAlign=middle;spacingLeft=4;spacingRight=4;overflow=hidden;points=[[0,0.5],[1,0.5]];portConstraint=eastwest;rotatable=0;whiteSpace=wrap;html=1;" parent="0xGlbApnoTyR-Ioo5-qS-72" vertex="1">
          <mxGeometry y="90" width="440" height="30" as="geometry" />
        </mxCell>
        <mxCell id="0xGlbApnoTyR-Ioo5-qS-85" value="+PlayerDead()" style="text;strokeColor=none;fillColor=default;align=left;verticalAlign=middle;spacingLeft=4;spacingRight=4;overflow=hidden;points=[[0,0.5],[1,0.5]];portConstraint=eastwest;rotatable=0;whiteSpace=wrap;html=1;" parent="0xGlbApnoTyR-Ioo5-qS-72" vertex="1">
          <mxGeometry y="120" width="440" height="30" as="geometry" />
        </mxCell>
        <mxCell id="0xGlbApnoTyR-Ioo5-qS-86" value="+Set_Weapon_Damage_Mul(float)" style="text;strokeColor=none;fillColor=default;align=left;verticalAlign=middle;spacingLeft=4;spacingRight=4;overflow=hidden;points=[[0,0.5],[1,0.5]];portConstraint=eastwest;rotatable=0;whiteSpace=wrap;html=1;" parent="0xGlbApnoTyR-Ioo5-qS-72" vertex="1">
          <mxGeometry y="150" width="440" height="30" as="geometry" />
        </mxCell>
        <mxCell id="0xGlbApnoTyR-Ioo5-qS-87" value="+Set_Weapon_FireRange_direct(float)" style="text;strokeColor=none;fillColor=default;align=left;verticalAlign=middle;spacingLeft=4;spacingRight=4;overflow=hidden;points=[[0,0.5],[1,0.5]];portConstraint=eastwest;rotatable=0;whiteSpace=wrap;html=1;" parent="0xGlbApnoTyR-Ioo5-qS-72" vertex="1">
          <mxGeometry y="180" width="440" height="30" as="geometry" />
        </mxCell>
        <mxCell id="0xGlbApnoTyR-Ioo5-qS-88" value="+Set_Weapon_FireRange_Mul(float)" style="text;strokeColor=none;fillColor=default;align=left;verticalAlign=middle;spacingLeft=4;spacingRight=4;overflow=hidden;points=[[0,0.5],[1,0.5]];portConstraint=eastwest;rotatable=0;whiteSpace=wrap;html=1;" parent="0xGlbApnoTyR-Ioo5-qS-72" vertex="1">
          <mxGeometry y="210" width="440" height="30" as="geometry" />
        </mxCell>
        <mxCell id="0xGlbApnoTyR-Ioo5-qS-89" value="+Set_Weapon_FireAngle(float)" style="text;strokeColor=none;fillColor=default;align=left;verticalAlign=middle;spacingLeft=4;spacingRight=4;overflow=hidden;points=[[0,0.5],[1,0.5]];portConstraint=eastwest;rotatable=0;whiteSpace=wrap;html=1;" parent="0xGlbApnoTyR-Ioo5-qS-72" vertex="1">
          <mxGeometry y="240" width="440" height="30" as="geometry" />
        </mxCell>
        <mxCell id="0xGlbApnoTyR-Ioo5-qS-90" value="+GetEXP(int)" style="text;strokeColor=none;fillColor=default;align=left;verticalAlign=middle;spacingLeft=4;spacingRight=4;overflow=hidden;points=[[0,0.5],[1,0.5]];portConstraint=eastwest;rotatable=0;whiteSpace=wrap;html=1;" parent="0xGlbApnoTyR-Ioo5-qS-72" vertex="1">
          <mxGeometry y="270" width="440" height="30" as="geometry" />
        </mxCell>
        <mxCell id="0xGlbApnoTyR-Ioo5-qS-91" value="Health_Enemy: Helth" style="swimlane;fontStyle=0;childLayout=stackLayout;horizontal=1;startSize=30;horizontalStack=0;resizeParent=1;resizeParentMax=0;resizeLast=0;collapsible=1;marginBottom=0;whiteSpace=wrap;html=1;" parent="1" vertex="1">
          <mxGeometry x="1580" y="-3984.97" width="350" height="330" as="geometry" />
        </mxCell>
        <mxCell id="0xGlbApnoTyR-Ioo5-qS-93" value="&lt;div&gt;+Setup(Vector3, float, float, float, float, float,&amp;nbsp;&lt;span style=&quot;background-color: initial;&quot;&gt;int, int, float, float)&lt;/span&gt;&lt;/div&gt;" style="text;strokeColor=none;fillColor=default;align=left;verticalAlign=middle;spacingLeft=4;spacingRight=4;overflow=hidden;points=[[0,0.5],[1,0.5]];portConstraint=eastwest;rotatable=0;whiteSpace=wrap;html=1;" parent="0xGlbApnoTyR-Ioo5-qS-91" vertex="1">
          <mxGeometry y="30" width="350" height="30" as="geometry" />
        </mxCell>
        <mxCell id="0xGlbApnoTyR-Ioo5-qS-103" value="+GetDamage(int, WeaponKind)" style="text;strokeColor=none;fillColor=default;align=left;verticalAlign=middle;spacingLeft=4;spacingRight=4;overflow=hidden;points=[[0,0.5],[1,0.5]];portConstraint=eastwest;rotatable=0;whiteSpace=wrap;html=1;" parent="0xGlbApnoTyR-Ioo5-qS-91" vertex="1">
          <mxGeometry y="60" width="350" height="30" as="geometry" />
        </mxCell>
        <mxCell id="0xGlbApnoTyR-Ioo5-qS-104" value="+GetKnockBack(Vector3, int, float)" style="text;strokeColor=none;fillColor=default;align=left;verticalAlign=middle;spacingLeft=4;spacingRight=4;overflow=hidden;points=[[0,0.5],[1,0.5]];portConstraint=eastwest;rotatable=0;whiteSpace=wrap;html=1;" parent="0xGlbApnoTyR-Ioo5-qS-91" vertex="1">
          <mxGeometry y="90" width="350" height="30" as="geometry" />
        </mxCell>
        <mxCell id="0xGlbApnoTyR-Ioo5-qS-105" value="+GetStun(float)" style="text;strokeColor=none;fillColor=default;align=left;verticalAlign=middle;spacingLeft=4;spacingRight=4;overflow=hidden;points=[[0,0.5],[1,0.5]];portConstraint=eastwest;rotatable=0;whiteSpace=wrap;html=1;" parent="0xGlbApnoTyR-Ioo5-qS-91" vertex="1">
          <mxGeometry y="120" width="350" height="30" as="geometry" />
        </mxCell>
        <mxCell id="0xGlbApnoTyR-Ioo5-qS-106" value="-RecoverFromStun(float): IEnumerator" style="text;strokeColor=none;fillColor=default;align=left;verticalAlign=middle;spacingLeft=4;spacingRight=4;overflow=hidden;points=[[0,0.5],[1,0.5]];portConstraint=eastwest;rotatable=0;whiteSpace=wrap;html=1;" parent="0xGlbApnoTyR-Ioo5-qS-91" vertex="1">
          <mxGeometry y="150" width="350" height="30" as="geometry" />
        </mxCell>
        <mxCell id="0xGlbApnoTyR-Ioo5-qS-107" value="-&lt;span style=&quot;background-color: initial;&quot;&gt;TryRecoverFromStun()&lt;/span&gt;" style="text;strokeColor=none;fillColor=default;align=left;verticalAlign=middle;spacingLeft=4;spacingRight=4;overflow=hidden;points=[[0,0.5],[1,0.5]];portConstraint=eastwest;rotatable=0;whiteSpace=wrap;html=1;" parent="0xGlbApnoTyR-Ioo5-qS-91" vertex="1">
          <mxGeometry y="180" width="350" height="30" as="geometry" />
        </mxCell>
        <mxCell id="0xGlbApnoTyR-Ioo5-qS-108" value="+GetSlowDown(float, float)" style="text;strokeColor=none;fillColor=default;align=left;verticalAlign=middle;spacingLeft=4;spacingRight=4;overflow=hidden;points=[[0,0.5],[1,0.5]];portConstraint=eastwest;rotatable=0;whiteSpace=wrap;html=1;" parent="0xGlbApnoTyR-Ioo5-qS-91" vertex="1">
          <mxGeometry y="210" width="350" height="30" as="geometry" />
        </mxCell>
        <mxCell id="0xGlbApnoTyR-Ioo5-qS-109" value="+RecoverSlowDown()" style="text;strokeColor=none;fillColor=default;align=left;verticalAlign=middle;spacingLeft=4;spacingRight=4;overflow=hidden;points=[[0,0.5],[1,0.5]];portConstraint=eastwest;rotatable=0;whiteSpace=wrap;html=1;" parent="0xGlbApnoTyR-Ioo5-qS-91" vertex="1">
          <mxGeometry y="240" width="350" height="30" as="geometry" />
        </mxCell>
        <mxCell id="0xGlbApnoTyR-Ioo5-qS-110" value="#Dead()" style="text;strokeColor=none;fillColor=default;align=left;verticalAlign=middle;spacingLeft=4;spacingRight=4;overflow=hidden;points=[[0,0.5],[1,0.5]];portConstraint=eastwest;rotatable=0;whiteSpace=wrap;html=1;" parent="0xGlbApnoTyR-Ioo5-qS-91" vertex="1">
          <mxGeometry y="270" width="350" height="30" as="geometry" />
        </mxCell>
        <mxCell id="0xGlbApnoTyR-Ioo5-qS-111" value="-InactiveDeadBody(float): IEnumerator" style="text;strokeColor=none;fillColor=default;align=left;verticalAlign=middle;spacingLeft=4;spacingRight=4;overflow=hidden;points=[[0,0.5],[1,0.5]];portConstraint=eastwest;rotatable=0;whiteSpace=wrap;html=1;" parent="0xGlbApnoTyR-Ioo5-qS-91" vertex="1">
          <mxGeometry y="300" width="350" height="30" as="geometry" />
        </mxCell>
        <mxCell id="0xGlbApnoTyR-Ioo5-qS-112" value="Health_Player: Helth" style="swimlane;fontStyle=0;childLayout=stackLayout;horizontal=1;startSize=30;horizontalStack=0;resizeParent=1;resizeParentMax=0;resizeLast=0;collapsible=1;marginBottom=0;whiteSpace=wrap;html=1;" parent="1" vertex="1">
          <mxGeometry x="958" y="-4269.820000000001" width="210" height="150" as="geometry" />
        </mxCell>
        <mxCell id="0xGlbApnoTyR-Ioo5-qS-113" value="&lt;span style=&quot;text-align: center;&quot;&gt;// 싱글톤&lt;/span&gt;" style="text;strokeColor=none;fillColor=default;align=left;verticalAlign=middle;spacingLeft=4;spacingRight=4;overflow=hidden;points=[[0,0.5],[1,0.5]];portConstraint=eastwest;rotatable=0;whiteSpace=wrap;html=1;" parent="0xGlbApnoTyR-Ioo5-qS-112" vertex="1">
          <mxGeometry y="30" width="210" height="30" as="geometry" />
        </mxCell>
        <mxCell id="0xGlbApnoTyR-Ioo5-qS-114" value="+GetDamage(int, WeaponKind)" style="text;strokeColor=none;fillColor=default;align=left;verticalAlign=middle;spacingLeft=4;spacingRight=4;overflow=hidden;points=[[0,0.5],[1,0.5]];portConstraint=eastwest;rotatable=0;whiteSpace=wrap;html=1;" parent="0xGlbApnoTyR-Ioo5-qS-112" vertex="1">
          <mxGeometry y="60" width="210" height="30" as="geometry" />
        </mxCell>
        <mxCell id="7k5xXv0gscj0csPlmndP-1" value="-Update_HP_UI()" style="text;strokeColor=none;fillColor=default;align=left;verticalAlign=middle;spacingLeft=4;spacingRight=4;overflow=hidden;points=[[0,0.5],[1,0.5]];portConstraint=eastwest;rotatable=0;whiteSpace=wrap;html=1;" parent="0xGlbApnoTyR-Ioo5-qS-112" vertex="1">
          <mxGeometry y="90" width="210" height="30" as="geometry" />
        </mxCell>
        <mxCell id="7k5xXv0gscj0csPlmndP-2" value="#Dead()" style="text;strokeColor=none;fillColor=default;align=left;verticalAlign=middle;spacingLeft=4;spacingRight=4;overflow=hidden;points=[[0,0.5],[1,0.5]];portConstraint=eastwest;rotatable=0;whiteSpace=wrap;html=1;" parent="0xGlbApnoTyR-Ioo5-qS-112" vertex="1">
          <mxGeometry y="120" width="210" height="30" as="geometry" />
        </mxCell>
        <mxCell id="7k5xXv0gscj0csPlmndP-3" value="Enemy_Spawner" style="swimlane;fontStyle=0;childLayout=stackLayout;horizontal=1;startSize=30;horizontalStack=0;resizeParent=1;resizeParentMax=0;resizeLast=0;collapsible=1;marginBottom=0;whiteSpace=wrap;html=1;" parent="1" vertex="1">
          <mxGeometry x="2080" y="-3910" width="210" height="180" as="geometry" />
        </mxCell>
        <mxCell id="7k5xXv0gscj0csPlmndP-4" value="&lt;span style=&quot;text-align: center;&quot;&gt;// 싱글톤&lt;/span&gt;" style="text;strokeColor=none;fillColor=default;align=left;verticalAlign=middle;spacingLeft=4;spacingRight=4;overflow=hidden;points=[[0,0.5],[1,0.5]];portConstraint=eastwest;rotatable=0;whiteSpace=wrap;html=1;" parent="7k5xXv0gscj0csPlmndP-3" vertex="1">
          <mxGeometry y="30" width="210" height="30" as="geometry" />
        </mxCell>
        <mxCell id="7k5xXv0gscj0csPlmndP-5" value="+GetPooledObject(): GameObject" style="text;strokeColor=none;fillColor=default;align=left;verticalAlign=middle;spacingLeft=4;spacingRight=4;overflow=hidden;points=[[0,0.5],[1,0.5]];portConstraint=eastwest;rotatable=0;whiteSpace=wrap;html=1;" parent="7k5xXv0gscj0csPlmndP-3" vertex="1">
          <mxGeometry y="60" width="210" height="30" as="geometry" />
        </mxCell>
        <mxCell id="7k5xXv0gscj0csPlmndP-9" value="-CreateAndEnqueueObject()" style="text;strokeColor=none;fillColor=default;align=left;verticalAlign=middle;spacingLeft=4;spacingRight=4;overflow=hidden;points=[[0,0.5],[1,0.5]];portConstraint=eastwest;rotatable=0;whiteSpace=wrap;html=1;" parent="7k5xXv0gscj0csPlmndP-3" vertex="1">
          <mxGeometry y="90" width="210" height="30" as="geometry" />
        </mxCell>
        <mxCell id="7k5xXv0gscj0csPlmndP-10" value="+ReturnToPool(GameObject)" style="text;strokeColor=none;fillColor=default;align=left;verticalAlign=middle;spacingLeft=4;spacingRight=4;overflow=hidden;points=[[0,0.5],[1,0.5]];portConstraint=eastwest;rotatable=0;whiteSpace=wrap;html=1;" parent="7k5xXv0gscj0csPlmndP-3" vertex="1">
          <mxGeometry y="120" width="210" height="30" as="geometry" />
        </mxCell>
        <mxCell id="7k5xXv0gscj0csPlmndP-12" value="-SpawnEnemy()" style="text;strokeColor=none;fillColor=default;align=left;verticalAlign=middle;spacingLeft=4;spacingRight=4;overflow=hidden;points=[[0,0.5],[1,0.5]];portConstraint=eastwest;rotatable=0;whiteSpace=wrap;html=1;" parent="7k5xXv0gscj0csPlmndP-3" vertex="1">
          <mxGeometry y="150" width="210" height="30" as="geometry" />
        </mxCell>
        <mxCell id="7k5xXv0gscj0csPlmndP-13" value="&amp;lt;&amp;lt;abstract&amp;gt;&amp;gt;&lt;div&gt;Health&lt;/div&gt;" style="swimlane;fontStyle=0;childLayout=stackLayout;horizontal=1;startSize=30;horizontalStack=0;resizeParent=1;resizeParentMax=0;resizeLast=0;collapsible=1;marginBottom=0;whiteSpace=wrap;html=1;" parent="1" vertex="1">
          <mxGeometry x="1305" y="-4294.97" width="230" height="210" as="geometry" />
        </mxCell>
        <mxCell id="7k5xXv0gscj0csPlmndP-15" value="+GetDamage(int, WeaponKind)" style="text;strokeColor=none;fillColor=none;align=left;verticalAlign=middle;spacingLeft=4;spacingRight=4;overflow=hidden;points=[[0,0.5],[1,0.5]];portConstraint=eastwest;rotatable=0;whiteSpace=wrap;html=1;" parent="7k5xXv0gscj0csPlmndP-13" vertex="1">
          <mxGeometry y="30" width="230" height="30" as="geometry" />
        </mxCell>
        <mxCell id="7k5xXv0gscj0csPlmndP-19" value="+GetHeal(int)" style="text;strokeColor=none;fillColor=none;align=left;verticalAlign=middle;spacingLeft=4;spacingRight=4;overflow=hidden;points=[[0,0.5],[1,0.5]];portConstraint=eastwest;rotatable=0;whiteSpace=wrap;html=1;" parent="7k5xXv0gscj0csPlmndP-13" vertex="1">
          <mxGeometry y="60" width="230" height="30" as="geometry" />
        </mxCell>
        <mxCell id="7k5xXv0gscj0csPlmndP-18" value="+CanDamaged(WeaponKind, float): bool" style="text;strokeColor=none;fillColor=none;align=left;verticalAlign=middle;spacingLeft=4;spacingRight=4;overflow=hidden;points=[[0,0.5],[1,0.5]];portConstraint=eastwest;rotatable=0;whiteSpace=wrap;html=1;" parent="7k5xXv0gscj0csPlmndP-13" vertex="1">
          <mxGeometry y="90" width="230" height="30" as="geometry" />
        </mxCell>
        <mxCell id="7k5xXv0gscj0csPlmndP-21" value="#SelfExplosion(int, float)" style="text;strokeColor=none;fillColor=none;align=left;verticalAlign=middle;spacingLeft=4;spacingRight=4;overflow=hidden;points=[[0,0.5],[1,0.5]];portConstraint=eastwest;rotatable=0;whiteSpace=wrap;html=1;" parent="7k5xXv0gscj0csPlmndP-13" vertex="1">
          <mxGeometry y="120" width="230" height="30" as="geometry" />
        </mxCell>
        <mxCell id="7k5xXv0gscj0csPlmndP-22" value="#Dead()" style="text;strokeColor=none;fillColor=none;align=left;verticalAlign=middle;spacingLeft=4;spacingRight=4;overflow=hidden;points=[[0,0.5],[1,0.5]];portConstraint=eastwest;rotatable=0;whiteSpace=wrap;html=1;" parent="7k5xXv0gscj0csPlmndP-13" vertex="1">
          <mxGeometry y="150" width="230" height="30" as="geometry" />
        </mxCell>
        <mxCell id="7k5xXv0gscj0csPlmndP-23" value="#SetHP()" style="text;strokeColor=none;fillColor=none;align=left;verticalAlign=middle;spacingLeft=4;spacingRight=4;overflow=hidden;points=[[0,0.5],[1,0.5]];portConstraint=eastwest;rotatable=0;whiteSpace=wrap;html=1;" parent="7k5xXv0gscj0csPlmndP-13" vertex="1">
          <mxGeometry y="180" width="230" height="30" as="geometry" />
        </mxCell>
        <mxCell id="7k5xXv0gscj0csPlmndP-24" value="VehicleControl" style="swimlane;fontStyle=0;childLayout=stackLayout;horizontal=1;startSize=30;horizontalStack=0;resizeParent=1;resizeParentMax=0;resizeLast=0;collapsible=1;marginBottom=0;whiteSpace=wrap;html=1;" parent="1" vertex="1">
          <mxGeometry x="728" y="-4269.820000000001" width="210" height="210" as="geometry" />
        </mxCell>
        <mxCell id="7k5xXv0gscj0csPlmndP-25" value="&lt;span style=&quot;text-align: center;&quot;&gt;// 싱글톤&lt;/span&gt;" style="text;strokeColor=none;fillColor=default;align=left;verticalAlign=middle;spacingLeft=4;spacingRight=4;overflow=hidden;points=[[0,0.5],[1,0.5]];portConstraint=eastwest;rotatable=0;whiteSpace=wrap;html=1;" parent="7k5xXv0gscj0csPlmndP-24" vertex="1">
          <mxGeometry y="30" width="210" height="30" as="geometry" />
        </mxCell>
        <mxCell id="7k5xXv0gscj0csPlmndP-26" value="-Driving()" style="text;strokeColor=none;fillColor=default;align=left;verticalAlign=middle;spacingLeft=4;spacingRight=4;overflow=hidden;points=[[0,0.5],[1,0.5]];portConstraint=eastwest;rotatable=0;whiteSpace=wrap;html=1;" parent="7k5xXv0gscj0csPlmndP-24" vertex="1">
          <mxGeometry y="60" width="210" height="30" as="geometry" />
        </mxCell>
        <mxCell id="7k5xXv0gscj0csPlmndP-29" value="-ClampVelocity()" style="text;strokeColor=none;fillColor=default;align=left;verticalAlign=middle;spacingLeft=4;spacingRight=4;overflow=hidden;points=[[0,0.5],[1,0.5]];portConstraint=eastwest;rotatable=0;whiteSpace=wrap;html=1;" parent="7k5xXv0gscj0csPlmndP-24" vertex="1">
          <mxGeometry y="90" width="210" height="30" as="geometry" />
        </mxCell>
        <mxCell id="7k5xXv0gscj0csPlmndP-30" value="-ClampWheelRPM()" style="text;strokeColor=none;fillColor=default;align=left;verticalAlign=middle;spacingLeft=4;spacingRight=4;overflow=hidden;points=[[0,0.5],[1,0.5]];portConstraint=eastwest;rotatable=0;whiteSpace=wrap;html=1;" parent="7k5xXv0gscj0csPlmndP-24" vertex="1">
          <mxGeometry y="120" width="210" height="30" as="geometry" />
        </mxCell>
        <mxCell id="7k5xXv0gscj0csPlmndP-31" value="+ForceBody(int)" style="text;strokeColor=none;fillColor=default;align=left;verticalAlign=middle;spacingLeft=4;spacingRight=4;overflow=hidden;points=[[0,0.5],[1,0.5]];portConstraint=eastwest;rotatable=0;whiteSpace=wrap;html=1;" parent="7k5xXv0gscj0csPlmndP-24" vertex="1">
          <mxGeometry y="150" width="210" height="30" as="geometry" />
        </mxCell>
        <mxCell id="7k5xXv0gscj0csPlmndP-32" value="-WheelAnimation()" style="text;strokeColor=none;fillColor=default;align=left;verticalAlign=middle;spacingLeft=4;spacingRight=4;overflow=hidden;points=[[0,0.5],[1,0.5]];portConstraint=eastwest;rotatable=0;whiteSpace=wrap;html=1;" parent="7k5xXv0gscj0csPlmndP-24" vertex="1">
          <mxGeometry y="180" width="210" height="30" as="geometry" />
        </mxCell>
        <mxCell id="7k5xXv0gscj0csPlmndP-33" value="Impact" style="swimlane;fontStyle=0;childLayout=stackLayout;horizontal=1;startSize=30;horizontalStack=0;resizeParent=1;resizeParentMax=0;resizeLast=0;collapsible=1;marginBottom=0;whiteSpace=wrap;html=1;" parent="1" vertex="1">
          <mxGeometry x="958" y="-3739.97" width="210" height="120" as="geometry" />
        </mxCell>
        <mxCell id="7k5xXv0gscj0csPlmndP-34" value="&lt;span style=&quot;text-align: center;&quot;&gt;// 싱글톤&lt;/span&gt;" style="text;strokeColor=none;fillColor=default;align=left;verticalAlign=middle;spacingLeft=4;spacingRight=4;overflow=hidden;points=[[0,0.5],[1,0.5]];portConstraint=eastwest;rotatable=0;whiteSpace=wrap;html=1;" parent="7k5xXv0gscj0csPlmndP-33" vertex="1">
          <mxGeometry y="30" width="210" height="30" as="geometry" />
        </mxCell>
        <mxCell id="7k5xXv0gscj0csPlmndP-35" value="-SendImpactDamage(Health)" style="text;strokeColor=none;fillColor=default;align=left;verticalAlign=middle;spacingLeft=4;spacingRight=4;overflow=hidden;points=[[0,0.5],[1,0.5]];portConstraint=eastwest;rotatable=0;whiteSpace=wrap;html=1;" parent="7k5xXv0gscj0csPlmndP-33" vertex="1">
          <mxGeometry y="60" width="210" height="30" as="geometry" />
        </mxCell>
        <mxCell id="7k5xXv0gscj0csPlmndP-40" value="+IsAbleImpact(Health): bool" style="text;strokeColor=none;fillColor=default;align=left;verticalAlign=middle;spacingLeft=4;spacingRight=4;overflow=hidden;points=[[0,0.5],[1,0.5]];portConstraint=eastwest;rotatable=0;whiteSpace=wrap;html=1;" parent="7k5xXv0gscj0csPlmndP-33" vertex="1">
          <mxGeometry y="90" width="210" height="30" as="geometry" />
        </mxCell>
        <mxCell id="7k5xXv0gscj0csPlmndP-41" value="Weapon" style="swimlane;fontStyle=0;childLayout=stackLayout;horizontal=1;startSize=30;horizontalStack=0;resizeParent=1;resizeParentMax=0;resizeLast=0;collapsible=1;marginBottom=0;whiteSpace=wrap;html=1;" parent="1" vertex="1">
          <mxGeometry x="958" y="-4094.97" width="210" height="330" as="geometry" />
        </mxCell>
        <mxCell id="7k5xXv0gscj0csPlmndP-42" value="&lt;span style=&quot;text-align: center;&quot;&gt;// 싱글톤&lt;/span&gt;" style="text;strokeColor=none;fillColor=default;align=left;verticalAlign=middle;spacingLeft=4;spacingRight=4;overflow=hidden;points=[[0,0.5],[1,0.5]];portConstraint=eastwest;rotatable=0;whiteSpace=wrap;html=1;" parent="7k5xXv0gscj0csPlmndP-41" vertex="1">
          <mxGeometry y="30" width="210" height="30" as="geometry" />
        </mxCell>
        <mxCell id="7k5xXv0gscj0csPlmndP-43" value="-Get_CursorWorldPos()" style="text;strokeColor=none;fillColor=default;align=left;verticalAlign=middle;spacingLeft=4;spacingRight=4;overflow=hidden;points=[[0,0.5],[1,0.5]];portConstraint=eastwest;rotatable=0;whiteSpace=wrap;html=1;" parent="7k5xXv0gscj0csPlmndP-41" vertex="1">
          <mxGeometry y="60" width="210" height="30" as="geometry" />
        </mxCell>
        <mxCell id="7k5xXv0gscj0csPlmndP-45" value="+Set_FireRangeUI_Range(float)" style="text;strokeColor=none;fillColor=default;align=left;verticalAlign=middle;spacingLeft=4;spacingRight=4;overflow=hidden;points=[[0,0.5],[1,0.5]];portConstraint=eastwest;rotatable=0;whiteSpace=wrap;html=1;" parent="7k5xXv0gscj0csPlmndP-41" vertex="1">
          <mxGeometry y="90" width="210" height="30" as="geometry" />
        </mxCell>
        <mxCell id="7k5xXv0gscj0csPlmndP-46" value="+Set_FireRangeUI_HalfAngle(float)" style="text;strokeColor=none;fillColor=default;align=left;verticalAlign=middle;spacingLeft=4;spacingRight=4;overflow=hidden;points=[[0,0.5],[1,0.5]];portConstraint=eastwest;rotatable=0;whiteSpace=wrap;html=1;" parent="7k5xXv0gscj0csPlmndP-41" vertex="1">
          <mxGeometry y="120" width="210" height="30" as="geometry" />
        </mxCell>
        <mxCell id="7k5xXv0gscj0csPlmndP-47" value="-RotateWeapon()" style="text;strokeColor=none;fillColor=default;align=left;verticalAlign=middle;spacingLeft=4;spacingRight=4;overflow=hidden;points=[[0,0.5],[1,0.5]];portConstraint=eastwest;rotatable=0;whiteSpace=wrap;html=1;" parent="7k5xXv0gscj0csPlmndP-41" vertex="1">
          <mxGeometry y="150" width="210" height="30" as="geometry" />
        </mxCell>
        <mxCell id="7k5xXv0gscj0csPlmndP-49" value="-Find_ClosestEnemy()" style="text;strokeColor=none;fillColor=default;align=left;verticalAlign=middle;spacingLeft=4;spacingRight=4;overflow=hidden;points=[[0,0.5],[1,0.5]];portConstraint=eastwest;rotatable=0;whiteSpace=wrap;html=1;" parent="7k5xXv0gscj0csPlmndP-41" vertex="1">
          <mxGeometry y="180" width="210" height="30" as="geometry" />
        </mxCell>
        <mxCell id="7k5xXv0gscj0csPlmndP-50" value="-Attack()" style="text;strokeColor=none;fillColor=default;align=left;verticalAlign=middle;spacingLeft=4;spacingRight=4;overflow=hidden;points=[[0,0.5],[1,0.5]];portConstraint=eastwest;rotatable=0;whiteSpace=wrap;html=1;" parent="7k5xXv0gscj0csPlmndP-41" vertex="1">
          <mxGeometry y="210" width="210" height="30" as="geometry" />
        </mxCell>
        <mxCell id="7k5xXv0gscj0csPlmndP-51" value="-Sync_Weapon_UI()" style="text;strokeColor=none;fillColor=default;align=left;verticalAlign=middle;spacingLeft=4;spacingRight=4;overflow=hidden;points=[[0,0.5],[1,0.5]];portConstraint=eastwest;rotatable=0;whiteSpace=wrap;html=1;" parent="7k5xXv0gscj0csPlmndP-41" vertex="1">
          <mxGeometry y="240" width="210" height="30" as="geometry" />
        </mxCell>
        <mxCell id="7k5xXv0gscj0csPlmndP-52" value="-Sync_Weapon_Anim()" style="text;strokeColor=none;fillColor=default;align=left;verticalAlign=middle;spacingLeft=4;spacingRight=4;overflow=hidden;points=[[0,0.5],[1,0.5]];portConstraint=eastwest;rotatable=0;whiteSpace=wrap;html=1;" parent="7k5xXv0gscj0csPlmndP-41" vertex="1">
          <mxGeometry y="270" width="210" height="30" as="geometry" />
        </mxCell>
        <mxCell id="7k5xXv0gscj0csPlmndP-53" value="+SetActive_Weapon_UI(bool)" style="text;strokeColor=none;fillColor=default;align=left;verticalAlign=middle;spacingLeft=4;spacingRight=4;overflow=hidden;points=[[0,0.5],[1,0.5]];portConstraint=eastwest;rotatable=0;whiteSpace=wrap;html=1;" parent="7k5xXv0gscj0csPlmndP-41" vertex="1">
          <mxGeometry y="300" width="210" height="30" as="geometry" />
        </mxCell>
        <mxCell id="7k5xXv0gscj0csPlmndP-62" value="&amp;lt;&amp;lt;Interface&amp;gt;&amp;gt;&lt;div&gt;IItem&lt;/div&gt;" style="swimlane;fontStyle=0;childLayout=stackLayout;horizontal=1;startSize=30;horizontalStack=0;resizeParent=1;resizeParentMax=0;resizeLast=0;collapsible=1;marginBottom=0;whiteSpace=wrap;html=1;" parent="1" vertex="1">
          <mxGeometry x="430" y="-4479.97" width="210" height="60" as="geometry" />
        </mxCell>
        <mxCell id="7k5xXv0gscj0csPlmndP-63" value="&lt;span style=&quot;text-align: center;&quot;&gt;Use(GameObject)&lt;/span&gt;" style="text;strokeColor=none;fillColor=default;align=left;verticalAlign=middle;spacingLeft=4;spacingRight=4;overflow=hidden;points=[[0,0.5],[1,0.5]];portConstraint=eastwest;rotatable=0;whiteSpace=wrap;html=1;" parent="7k5xXv0gscj0csPlmndP-62" vertex="1">
          <mxGeometry y="30" width="210" height="30" as="geometry" />
        </mxCell>
        <mxCell id="7k5xXv0gscj0csPlmndP-68" value="&lt;div&gt;Item_EXP: IItem&lt;/div&gt;" style="swimlane;fontStyle=0;childLayout=stackLayout;horizontal=1;startSize=30;horizontalStack=0;resizeParent=1;resizeParentMax=0;resizeLast=0;collapsible=1;marginBottom=0;whiteSpace=wrap;html=1;" parent="1" vertex="1">
          <mxGeometry x="105" y="-4508.08" width="210" height="120" as="geometry" />
        </mxCell>
        <mxCell id="7k5xXv0gscj0csPlmndP-69" value="&lt;div style=&quot;text-align: center;&quot;&gt;&lt;span style=&quot;background-color: initial;&quot;&gt;+Use(GameObject)&lt;/span&gt;&lt;/div&gt;" style="text;strokeColor=none;fillColor=default;align=left;verticalAlign=middle;spacingLeft=4;spacingRight=4;overflow=hidden;points=[[0,0.5],[1,0.5]];portConstraint=eastwest;rotatable=0;whiteSpace=wrap;html=1;" parent="7k5xXv0gscj0csPlmndP-68" vertex="1">
          <mxGeometry y="30" width="210" height="30" as="geometry" />
        </mxCell>
        <mxCell id="7k5xXv0gscj0csPlmndP-70" value="&lt;div style=&quot;text-align: center;&quot;&gt;+Magneticed()&lt;br&gt;&lt;/div&gt;" style="text;strokeColor=none;fillColor=default;align=left;verticalAlign=middle;spacingLeft=4;spacingRight=4;overflow=hidden;points=[[0,0.5],[1,0.5]];portConstraint=eastwest;rotatable=0;whiteSpace=wrap;html=1;" parent="7k5xXv0gscj0csPlmndP-68" vertex="1">
          <mxGeometry y="60" width="210" height="30" as="geometry" />
        </mxCell>
        <mxCell id="7k5xXv0gscj0csPlmndP-71" value="&lt;div style=&quot;text-align: center;&quot;&gt;-Move()&lt;br&gt;&lt;/div&gt;" style="text;strokeColor=none;fillColor=default;align=left;verticalAlign=middle;spacingLeft=4;spacingRight=4;overflow=hidden;points=[[0,0.5],[1,0.5]];portConstraint=eastwest;rotatable=0;whiteSpace=wrap;html=1;" parent="7k5xXv0gscj0csPlmndP-68" vertex="1">
          <mxGeometry y="90" width="210" height="30" as="geometry" />
        </mxCell>
        <mxCell id="7k5xXv0gscj0csPlmndP-72" value="&lt;div&gt;Item_Magnetic: IItem&lt;/div&gt;" style="swimlane;fontStyle=0;childLayout=stackLayout;horizontal=1;startSize=30;horizontalStack=0;resizeParent=1;resizeParentMax=0;resizeLast=0;collapsible=1;marginBottom=0;whiteSpace=wrap;html=1;" parent="1" vertex="1">
          <mxGeometry x="105" y="-4640" width="210" height="60" as="geometry" />
        </mxCell>
        <mxCell id="7k5xXv0gscj0csPlmndP-73" value="&lt;div style=&quot;text-align: center;&quot;&gt;&lt;span style=&quot;background-color: initial;&quot;&gt;+Use(GameObject)&lt;/span&gt;&lt;/div&gt;" style="text;strokeColor=none;fillColor=default;align=left;verticalAlign=middle;spacingLeft=4;spacingRight=4;overflow=hidden;points=[[0,0.5],[1,0.5]];portConstraint=eastwest;rotatable=0;whiteSpace=wrap;html=1;" parent="7k5xXv0gscj0csPlmndP-72" vertex="1">
          <mxGeometry y="30" width="210" height="30" as="geometry" />
        </mxCell>
        <mxCell id="7k5xXv0gscj0csPlmndP-76" value="&lt;div&gt;Item_Heal: IItem&lt;/div&gt;" style="swimlane;fontStyle=0;childLayout=stackLayout;horizontal=1;startSize=30;horizontalStack=0;resizeParent=1;resizeParentMax=0;resizeLast=0;collapsible=1;marginBottom=0;whiteSpace=wrap;html=1;" parent="1" vertex="1">
          <mxGeometry x="105" y="-4319.93" width="210" height="60" as="geometry" />
        </mxCell>
        <mxCell id="7k5xXv0gscj0csPlmndP-77" value="&lt;div style=&quot;text-align: center;&quot;&gt;&lt;span style=&quot;background-color: initial;&quot;&gt;+Use(GameObject)&lt;/span&gt;&lt;/div&gt;" style="text;strokeColor=none;fillColor=default;align=left;verticalAlign=middle;spacingLeft=4;spacingRight=4;overflow=hidden;points=[[0,0.5],[1,0.5]];portConstraint=eastwest;rotatable=0;whiteSpace=wrap;html=1;" parent="7k5xXv0gscj0csPlmndP-76" vertex="1">
          <mxGeometry y="30" width="210" height="30" as="geometry" />
        </mxCell>
        <mxCell id="7k5xXv0gscj0csPlmndP-78" value="Skill_APS: Skill" style="swimlane;fontStyle=0;childLayout=stackLayout;horizontal=1;startSize=30;horizontalStack=0;resizeParent=1;resizeParentMax=0;resizeLast=0;collapsible=1;marginBottom=0;whiteSpace=wrap;html=1;" parent="1" vertex="1">
          <mxGeometry x="728" y="-2874.8199999999997" width="210" height="330" as="geometry" />
        </mxCell>
        <mxCell id="7k5xXv0gscj0csPlmndP-79" value="&lt;span style=&quot;text-align: center;&quot;&gt;// 싱글톤&lt;/span&gt;" style="text;strokeColor=none;fillColor=default;align=left;verticalAlign=middle;spacingLeft=4;spacingRight=4;overflow=hidden;points=[[0,0.5],[1,0.5]];portConstraint=eastwest;rotatable=0;whiteSpace=wrap;html=1;" parent="7k5xXv0gscj0csPlmndP-78" vertex="1">
          <mxGeometry y="30" width="210" height="30" as="geometry" />
        </mxCell>
        <mxCell id="7k5xXv0gscj0csPlmndP-91" value="+LevelUp()" style="text;strokeColor=none;fillColor=default;align=left;verticalAlign=middle;spacingLeft=4;spacingRight=4;overflow=hidden;points=[[0,0.5],[1,0.5]];portConstraint=eastwest;rotatable=0;whiteSpace=wrap;html=1;" parent="7k5xXv0gscj0csPlmndP-78" vertex="1">
          <mxGeometry y="60" width="210" height="30" as="geometry" />
        </mxCell>
        <mxCell id="7k5xXv0gscj0csPlmndP-96" value="+Master_1()" style="text;strokeColor=none;fillColor=default;align=left;verticalAlign=middle;spacingLeft=4;spacingRight=4;overflow=hidden;points=[[0,0.5],[1,0.5]];portConstraint=eastwest;rotatable=0;whiteSpace=wrap;html=1;" parent="7k5xXv0gscj0csPlmndP-78" vertex="1">
          <mxGeometry y="90" width="210" height="30" as="geometry" />
        </mxCell>
        <mxCell id="7k5xXv0gscj0csPlmndP-95" value="+Master_2()" style="text;strokeColor=none;fillColor=default;align=left;verticalAlign=middle;spacingLeft=4;spacingRight=4;overflow=hidden;points=[[0,0.5],[1,0.5]];portConstraint=eastwest;rotatable=0;whiteSpace=wrap;html=1;" parent="7k5xXv0gscj0csPlmndP-78" vertex="1">
          <mxGeometry y="120" width="210" height="30" as="geometry" />
        </mxCell>
        <mxCell id="7k5xXv0gscj0csPlmndP-94" value="+Master_3()" style="text;strokeColor=none;fillColor=default;align=left;verticalAlign=middle;spacingLeft=4;spacingRight=4;overflow=hidden;points=[[0,0.5],[1,0.5]];portConstraint=eastwest;rotatable=0;whiteSpace=wrap;html=1;" parent="7k5xXv0gscj0csPlmndP-78" vertex="1">
          <mxGeometry y="150" width="210" height="30" as="geometry" />
        </mxCell>
        <mxCell id="7k5xXv0gscj0csPlmndP-97" value="-WorkTurret()" style="text;strokeColor=none;fillColor=default;align=left;verticalAlign=middle;spacingLeft=4;spacingRight=4;overflow=hidden;points=[[0,0.5],[1,0.5]];portConstraint=eastwest;rotatable=0;whiteSpace=wrap;html=1;" parent="7k5xXv0gscj0csPlmndP-78" vertex="1">
          <mxGeometry y="180" width="210" height="30" as="geometry" />
        </mxCell>
        <mxCell id="7k5xXv0gscj0csPlmndP-92" value="-FireAPS(Transform)" style="text;strokeColor=none;fillColor=default;align=left;verticalAlign=middle;spacingLeft=4;spacingRight=4;overflow=hidden;points=[[0,0.5],[1,0.5]];portConstraint=eastwest;rotatable=0;whiteSpace=wrap;html=1;" parent="7k5xXv0gscj0csPlmndP-78" vertex="1">
          <mxGeometry y="210" width="210" height="30" as="geometry" />
        </mxCell>
        <mxCell id="7k5xXv0gscj0csPlmndP-98" value="-Find_ClosestEnemy(Transform)" style="text;strokeColor=none;fillColor=default;align=left;verticalAlign=middle;spacingLeft=4;spacingRight=4;overflow=hidden;points=[[0,0.5],[1,0.5]];portConstraint=eastwest;rotatable=0;whiteSpace=wrap;html=1;" parent="7k5xXv0gscj0csPlmndP-78" vertex="1">
          <mxGeometry y="240" width="210" height="30" as="geometry" />
        </mxCell>
        <mxCell id="7k5xXv0gscj0csPlmndP-99" value="-ShotGun(Transform)" style="text;strokeColor=none;fillColor=default;align=left;verticalAlign=middle;spacingLeft=4;spacingRight=4;overflow=hidden;points=[[0,0.5],[1,0.5]];portConstraint=eastwest;rotatable=0;whiteSpace=wrap;html=1;" parent="7k5xXv0gscj0csPlmndP-78" vertex="1">
          <mxGeometry y="270" width="210" height="30" as="geometry" />
        </mxCell>
        <mxCell id="7k5xXv0gscj0csPlmndP-100" value="-InitData()" style="text;strokeColor=none;fillColor=default;align=left;verticalAlign=middle;spacingLeft=4;spacingRight=4;overflow=hidden;points=[[0,0.5],[1,0.5]];portConstraint=eastwest;rotatable=0;whiteSpace=wrap;html=1;" parent="7k5xXv0gscj0csPlmndP-78" vertex="1">
          <mxGeometry y="300" width="210" height="30" as="geometry" />
        </mxCell>
        <mxCell id="7k5xXv0gscj0csPlmndP-82" value="&amp;lt;&amp;lt;Abstract&amp;gt;&amp;gt;&lt;div&gt;Skill&lt;/div&gt;" style="swimlane;fontStyle=0;childLayout=stackLayout;horizontal=1;startSize=30;horizontalStack=0;resizeParent=1;resizeParentMax=0;resizeLast=0;collapsible=1;marginBottom=0;whiteSpace=wrap;html=1;" parent="1" vertex="1">
          <mxGeometry x="330" y="-3524.97" width="210" height="210" as="geometry" />
        </mxCell>
        <mxCell id="7k5xXv0gscj0csPlmndP-84" value="+LevelUp()" style="text;strokeColor=none;fillColor=none;align=left;verticalAlign=middle;spacingLeft=4;spacingRight=4;overflow=hidden;points=[[0,0.5],[1,0.5]];portConstraint=eastwest;rotatable=0;whiteSpace=wrap;html=1;" parent="7k5xXv0gscj0csPlmndP-82" vertex="1">
          <mxGeometry y="30" width="210" height="30" as="geometry" />
        </mxCell>
        <mxCell id="7k5xXv0gscj0csPlmndP-85" value="+Master_1()" style="text;strokeColor=none;fillColor=none;align=left;verticalAlign=middle;spacingLeft=4;spacingRight=4;overflow=hidden;points=[[0,0.5],[1,0.5]];portConstraint=eastwest;rotatable=0;whiteSpace=wrap;html=1;" parent="7k5xXv0gscj0csPlmndP-82" vertex="1">
          <mxGeometry y="60" width="210" height="30" as="geometry" />
        </mxCell>
        <mxCell id="7k5xXv0gscj0csPlmndP-86" value="+Master_2()" style="text;strokeColor=none;fillColor=none;align=left;verticalAlign=middle;spacingLeft=4;spacingRight=4;overflow=hidden;points=[[0,0.5],[1,0.5]];portConstraint=eastwest;rotatable=0;whiteSpace=wrap;html=1;" parent="7k5xXv0gscj0csPlmndP-82" vertex="1">
          <mxGeometry y="90" width="210" height="30" as="geometry" />
        </mxCell>
        <mxCell id="7k5xXv0gscj0csPlmndP-87" value="+Master_3()" style="text;strokeColor=none;fillColor=none;align=left;verticalAlign=middle;spacingLeft=4;spacingRight=4;overflow=hidden;points=[[0,0.5],[1,0.5]];portConstraint=eastwest;rotatable=0;whiteSpace=wrap;html=1;" parent="7k5xXv0gscj0csPlmndP-82" vertex="1">
          <mxGeometry y="120" width="210" height="30" as="geometry" />
        </mxCell>
        <mxCell id="7k5xXv0gscj0csPlmndP-88" value="+DisableSkill()" style="text;strokeColor=none;fillColor=none;align=left;verticalAlign=middle;spacingLeft=4;spacingRight=4;overflow=hidden;points=[[0,0.5],[1,0.5]];portConstraint=eastwest;rotatable=0;whiteSpace=wrap;html=1;" parent="7k5xXv0gscj0csPlmndP-82" vertex="1">
          <mxGeometry y="150" width="210" height="30" as="geometry" />
        </mxCell>
        <mxCell id="7k5xXv0gscj0csPlmndP-89" value="+Damage_Plus(int)" style="text;strokeColor=none;fillColor=none;align=left;verticalAlign=middle;spacingLeft=4;spacingRight=4;overflow=hidden;points=[[0,0.5],[1,0.5]];portConstraint=eastwest;rotatable=0;whiteSpace=wrap;html=1;" parent="7k5xXv0gscj0csPlmndP-82" vertex="1">
          <mxGeometry y="180" width="210" height="30" as="geometry" />
        </mxCell>
        <mxCell id="7k5xXv0gscj0csPlmndP-101" value="Skill_Drone: Skill" style="swimlane;fontStyle=0;childLayout=stackLayout;horizontal=1;startSize=30;horizontalStack=0;resizeParent=1;resizeParentMax=0;resizeLast=0;collapsible=1;marginBottom=0;whiteSpace=wrap;html=1;" parent="1" vertex="1">
          <mxGeometry x="728" y="-2504.8199999999997" width="210" height="330" as="geometry" />
        </mxCell>
        <mxCell id="7k5xXv0gscj0csPlmndP-102" value="&lt;span style=&quot;text-align: center;&quot;&gt;// 싱글톤&lt;/span&gt;" style="text;strokeColor=none;fillColor=default;align=left;verticalAlign=middle;spacingLeft=4;spacingRight=4;overflow=hidden;points=[[0,0.5],[1,0.5]];portConstraint=eastwest;rotatable=0;whiteSpace=wrap;html=1;" parent="7k5xXv0gscj0csPlmndP-101" vertex="1">
          <mxGeometry y="30" width="210" height="30" as="geometry" />
        </mxCell>
        <mxCell id="7k5xXv0gscj0csPlmndP-103" value="+LevelUp()" style="text;strokeColor=none;fillColor=default;align=left;verticalAlign=middle;spacingLeft=4;spacingRight=4;overflow=hidden;points=[[0,0.5],[1,0.5]];portConstraint=eastwest;rotatable=0;whiteSpace=wrap;html=1;" parent="7k5xXv0gscj0csPlmndP-101" vertex="1">
          <mxGeometry y="60" width="210" height="30" as="geometry" />
        </mxCell>
        <mxCell id="7k5xXv0gscj0csPlmndP-104" value="+Master_1()" style="text;strokeColor=none;fillColor=default;align=left;verticalAlign=middle;spacingLeft=4;spacingRight=4;overflow=hidden;points=[[0,0.5],[1,0.5]];portConstraint=eastwest;rotatable=0;whiteSpace=wrap;html=1;" parent="7k5xXv0gscj0csPlmndP-101" vertex="1">
          <mxGeometry y="90" width="210" height="30" as="geometry" />
        </mxCell>
        <mxCell id="7k5xXv0gscj0csPlmndP-105" value="+Master_2()" style="text;strokeColor=none;fillColor=default;align=left;verticalAlign=middle;spacingLeft=4;spacingRight=4;overflow=hidden;points=[[0,0.5],[1,0.5]];portConstraint=eastwest;rotatable=0;whiteSpace=wrap;html=1;" parent="7k5xXv0gscj0csPlmndP-101" vertex="1">
          <mxGeometry y="120" width="210" height="30" as="geometry" />
        </mxCell>
        <mxCell id="7k5xXv0gscj0csPlmndP-106" value="+Master_3()" style="text;strokeColor=none;fillColor=default;align=left;verticalAlign=middle;spacingLeft=4;spacingRight=4;overflow=hidden;points=[[0,0.5],[1,0.5]];portConstraint=eastwest;rotatable=0;whiteSpace=wrap;html=1;" parent="7k5xXv0gscj0csPlmndP-101" vertex="1">
          <mxGeometry y="150" width="210" height="30" as="geometry" />
        </mxCell>
        <mxCell id="7k5xXv0gscj0csPlmndP-111" value="-InitData()" style="text;strokeColor=none;fillColor=default;align=left;verticalAlign=middle;spacingLeft=4;spacingRight=4;overflow=hidden;points=[[0,0.5],[1,0.5]];portConstraint=eastwest;rotatable=0;whiteSpace=wrap;html=1;" parent="7k5xXv0gscj0csPlmndP-101" vertex="1">
          <mxGeometry y="180" width="210" height="30" as="geometry" />
        </mxCell>
        <mxCell id="7k5xXv0gscj0csPlmndP-123" value="+DisableSkill()" style="text;strokeColor=none;fillColor=default;align=left;verticalAlign=middle;spacingLeft=4;spacingRight=4;overflow=hidden;points=[[0,0.5],[1,0.5]];portConstraint=eastwest;rotatable=0;whiteSpace=wrap;html=1;" parent="7k5xXv0gscj0csPlmndP-101" vertex="1">
          <mxGeometry y="210" width="210" height="30" as="geometry" />
        </mxCell>
        <mxCell id="7k5xXv0gscj0csPlmndP-107" value="+Damage_Plus(int)" style="text;strokeColor=none;fillColor=default;align=left;verticalAlign=middle;spacingLeft=4;spacingRight=4;overflow=hidden;points=[[0,0.5],[1,0.5]];portConstraint=eastwest;rotatable=0;whiteSpace=wrap;html=1;" parent="7k5xXv0gscj0csPlmndP-101" vertex="1">
          <mxGeometry y="240" width="210" height="30" as="geometry" />
        </mxCell>
        <mxCell id="7k5xXv0gscj0csPlmndP-110" value="-SuicideDroneMaster()" style="text;strokeColor=none;fillColor=default;align=left;verticalAlign=middle;spacingLeft=4;spacingRight=4;overflow=hidden;points=[[0,0.5],[1,0.5]];portConstraint=eastwest;rotatable=0;whiteSpace=wrap;html=1;" parent="7k5xXv0gscj0csPlmndP-101" vertex="1">
          <mxGeometry y="270" width="210" height="30" as="geometry" />
        </mxCell>
        <mxCell id="7k5xXv0gscj0csPlmndP-124" value="-ClosestEnemy(float): GameObject" style="text;strokeColor=none;fillColor=default;align=left;verticalAlign=middle;spacingLeft=4;spacingRight=4;overflow=hidden;points=[[0,0.5],[1,0.5]];portConstraint=eastwest;rotatable=0;whiteSpace=wrap;html=1;" parent="7k5xXv0gscj0csPlmndP-101" vertex="1">
          <mxGeometry y="300" width="210" height="30" as="geometry" />
        </mxCell>
        <mxCell id="7k5xXv0gscj0csPlmndP-126" value="Skill_Smoke: Skill" style="swimlane;fontStyle=0;childLayout=stackLayout;horizontal=1;startSize=30;horizontalStack=0;resizeParent=1;resizeParentMax=0;resizeLast=0;collapsible=1;marginBottom=0;whiteSpace=wrap;html=1;" parent="1" vertex="1">
          <mxGeometry x="728" y="-3584.97" width="210" height="330" as="geometry" />
        </mxCell>
        <mxCell id="7k5xXv0gscj0csPlmndP-127" value="&lt;span style=&quot;text-align: center;&quot;&gt;// 싱글톤&lt;/span&gt;" style="text;strokeColor=none;fillColor=default;align=left;verticalAlign=middle;spacingLeft=4;spacingRight=4;overflow=hidden;points=[[0,0.5],[1,0.5]];portConstraint=eastwest;rotatable=0;whiteSpace=wrap;html=1;" parent="7k5xXv0gscj0csPlmndP-126" vertex="1">
          <mxGeometry y="30" width="210" height="30" as="geometry" />
        </mxCell>
        <mxCell id="7k5xXv0gscj0csPlmndP-128" value="+LevelUp()" style="text;strokeColor=none;fillColor=default;align=left;verticalAlign=middle;spacingLeft=4;spacingRight=4;overflow=hidden;points=[[0,0.5],[1,0.5]];portConstraint=eastwest;rotatable=0;whiteSpace=wrap;html=1;" parent="7k5xXv0gscj0csPlmndP-126" vertex="1">
          <mxGeometry y="60" width="210" height="30" as="geometry" />
        </mxCell>
        <mxCell id="7k5xXv0gscj0csPlmndP-129" value="+Master_1()" style="text;strokeColor=none;fillColor=default;align=left;verticalAlign=middle;spacingLeft=4;spacingRight=4;overflow=hidden;points=[[0,0.5],[1,0.5]];portConstraint=eastwest;rotatable=0;whiteSpace=wrap;html=1;" parent="7k5xXv0gscj0csPlmndP-126" vertex="1">
          <mxGeometry y="90" width="210" height="30" as="geometry" />
        </mxCell>
        <mxCell id="7k5xXv0gscj0csPlmndP-130" value="+Master_2()" style="text;strokeColor=none;fillColor=default;align=left;verticalAlign=middle;spacingLeft=4;spacingRight=4;overflow=hidden;points=[[0,0.5],[1,0.5]];portConstraint=eastwest;rotatable=0;whiteSpace=wrap;html=1;" parent="7k5xXv0gscj0csPlmndP-126" vertex="1">
          <mxGeometry y="120" width="210" height="30" as="geometry" />
        </mxCell>
        <mxCell id="7k5xXv0gscj0csPlmndP-131" value="+Master_3()" style="text;strokeColor=none;fillColor=default;align=left;verticalAlign=middle;spacingLeft=4;spacingRight=4;overflow=hidden;points=[[0,0.5],[1,0.5]];portConstraint=eastwest;rotatable=0;whiteSpace=wrap;html=1;" parent="7k5xXv0gscj0csPlmndP-126" vertex="1">
          <mxGeometry y="150" width="210" height="30" as="geometry" />
        </mxCell>
        <mxCell id="7k5xXv0gscj0csPlmndP-133" value="+DisableSkill()" style="text;strokeColor=none;fillColor=default;align=left;verticalAlign=middle;spacingLeft=4;spacingRight=4;overflow=hidden;points=[[0,0.5],[1,0.5]];portConstraint=eastwest;rotatable=0;whiteSpace=wrap;html=1;" parent="7k5xXv0gscj0csPlmndP-126" vertex="1">
          <mxGeometry y="180" width="210" height="30" as="geometry" />
        </mxCell>
        <mxCell id="7k5xXv0gscj0csPlmndP-134" value="+Damage_Plus(int)" style="text;strokeColor=none;fillColor=default;align=left;verticalAlign=middle;spacingLeft=4;spacingRight=4;overflow=hidden;points=[[0,0.5],[1,0.5]];portConstraint=eastwest;rotatable=0;whiteSpace=wrap;html=1;" parent="7k5xXv0gscj0csPlmndP-126" vertex="1">
          <mxGeometry y="210" width="210" height="30" as="geometry" />
        </mxCell>
        <mxCell id="7k5xXv0gscj0csPlmndP-135" value="-DeploySmoke()" style="text;strokeColor=none;fillColor=default;align=left;verticalAlign=middle;spacingLeft=4;spacingRight=4;overflow=hidden;points=[[0,0.5],[1,0.5]];portConstraint=eastwest;rotatable=0;whiteSpace=wrap;html=1;" parent="7k5xXv0gscj0csPlmndP-126" vertex="1">
          <mxGeometry y="240" width="210" height="30" as="geometry" />
        </mxCell>
        <mxCell id="7k5xXv0gscj0csPlmndP-136" value="-DeploySmoke(int): IEnumerator" style="text;strokeColor=none;fillColor=default;align=left;verticalAlign=middle;spacingLeft=4;spacingRight=4;overflow=hidden;points=[[0,0.5],[1,0.5]];portConstraint=eastwest;rotatable=0;whiteSpace=wrap;html=1;" parent="7k5xXv0gscj0csPlmndP-126" vertex="1">
          <mxGeometry y="270" width="210" height="30" as="geometry" />
        </mxCell>
        <mxCell id="7k5xXv0gscj0csPlmndP-132" value="-InitData()" style="text;strokeColor=none;fillColor=default;align=left;verticalAlign=middle;spacingLeft=4;spacingRight=4;overflow=hidden;points=[[0,0.5],[1,0.5]];portConstraint=eastwest;rotatable=0;whiteSpace=wrap;html=1;" parent="7k5xXv0gscj0csPlmndP-126" vertex="1">
          <mxGeometry y="300" width="210" height="30" as="geometry" />
        </mxCell>
        <mxCell id="7k5xXv0gscj0csPlmndP-137" value="Skill_WP: Skill" style="swimlane;fontStyle=0;childLayout=stackLayout;horizontal=1;startSize=30;horizontalStack=0;resizeParent=1;resizeParentMax=0;resizeLast=0;collapsible=1;marginBottom=0;whiteSpace=wrap;html=1;" parent="1" vertex="1">
          <mxGeometry x="728" y="-3214.8199999999997" width="210" height="300" as="geometry" />
        </mxCell>
        <mxCell id="7k5xXv0gscj0csPlmndP-138" value="&lt;span style=&quot;text-align: center;&quot;&gt;// 싱글톤&lt;/span&gt;" style="text;strokeColor=none;fillColor=default;align=left;verticalAlign=middle;spacingLeft=4;spacingRight=4;overflow=hidden;points=[[0,0.5],[1,0.5]];portConstraint=eastwest;rotatable=0;whiteSpace=wrap;html=1;" parent="7k5xXv0gscj0csPlmndP-137" vertex="1">
          <mxGeometry y="30" width="210" height="30" as="geometry" />
        </mxCell>
        <mxCell id="7k5xXv0gscj0csPlmndP-139" value="+LevelUp()" style="text;strokeColor=none;fillColor=default;align=left;verticalAlign=middle;spacingLeft=4;spacingRight=4;overflow=hidden;points=[[0,0.5],[1,0.5]];portConstraint=eastwest;rotatable=0;whiteSpace=wrap;html=1;" parent="7k5xXv0gscj0csPlmndP-137" vertex="1">
          <mxGeometry y="60" width="210" height="30" as="geometry" />
        </mxCell>
        <mxCell id="7k5xXv0gscj0csPlmndP-140" value="+Master_1()" style="text;strokeColor=none;fillColor=default;align=left;verticalAlign=middle;spacingLeft=4;spacingRight=4;overflow=hidden;points=[[0,0.5],[1,0.5]];portConstraint=eastwest;rotatable=0;whiteSpace=wrap;html=1;" parent="7k5xXv0gscj0csPlmndP-137" vertex="1">
          <mxGeometry y="90" width="210" height="30" as="geometry" />
        </mxCell>
        <mxCell id="7k5xXv0gscj0csPlmndP-141" value="+Master_2()" style="text;strokeColor=none;fillColor=default;align=left;verticalAlign=middle;spacingLeft=4;spacingRight=4;overflow=hidden;points=[[0,0.5],[1,0.5]];portConstraint=eastwest;rotatable=0;whiteSpace=wrap;html=1;" parent="7k5xXv0gscj0csPlmndP-137" vertex="1">
          <mxGeometry y="120" width="210" height="30" as="geometry" />
        </mxCell>
        <mxCell id="7k5xXv0gscj0csPlmndP-142" value="+Master_3()" style="text;strokeColor=none;fillColor=default;align=left;verticalAlign=middle;spacingLeft=4;spacingRight=4;overflow=hidden;points=[[0,0.5],[1,0.5]];portConstraint=eastwest;rotatable=0;whiteSpace=wrap;html=1;" parent="7k5xXv0gscj0csPlmndP-137" vertex="1">
          <mxGeometry y="150" width="210" height="30" as="geometry" />
        </mxCell>
        <mxCell id="7k5xXv0gscj0csPlmndP-143" value="+DisableSkill()" style="text;strokeColor=none;fillColor=default;align=left;verticalAlign=middle;spacingLeft=4;spacingRight=4;overflow=hidden;points=[[0,0.5],[1,0.5]];portConstraint=eastwest;rotatable=0;whiteSpace=wrap;html=1;" parent="7k5xXv0gscj0csPlmndP-137" vertex="1">
          <mxGeometry y="180" width="210" height="30" as="geometry" />
        </mxCell>
        <mxCell id="7k5xXv0gscj0csPlmndP-144" value="+Damage_Plus(int)" style="text;strokeColor=none;fillColor=default;align=left;verticalAlign=middle;spacingLeft=4;spacingRight=4;overflow=hidden;points=[[0,0.5],[1,0.5]];portConstraint=eastwest;rotatable=0;whiteSpace=wrap;html=1;" parent="7k5xXv0gscj0csPlmndP-137" vertex="1">
          <mxGeometry y="210" width="210" height="30" as="geometry" />
        </mxCell>
        <mxCell id="7k5xXv0gscj0csPlmndP-145" value="-DeployWP()" style="text;strokeColor=none;fillColor=default;align=left;verticalAlign=middle;spacingLeft=4;spacingRight=4;overflow=hidden;points=[[0,0.5],[1,0.5]];portConstraint=eastwest;rotatable=0;whiteSpace=wrap;html=1;" parent="7k5xXv0gscj0csPlmndP-137" vertex="1">
          <mxGeometry y="240" width="210" height="30" as="geometry" />
        </mxCell>
        <mxCell id="7k5xXv0gscj0csPlmndP-147" value="-InitData()" style="text;strokeColor=none;fillColor=default;align=left;verticalAlign=middle;spacingLeft=4;spacingRight=4;overflow=hidden;points=[[0,0.5],[1,0.5]];portConstraint=eastwest;rotatable=0;whiteSpace=wrap;html=1;" parent="7k5xXv0gscj0csPlmndP-137" vertex="1">
          <mxGeometry y="270" width="210" height="30" as="geometry" />
        </mxCell>
        <mxCell id="7k5xXv0gscj0csPlmndP-148" value="&lt;div&gt;&amp;lt;&amp;lt;scriptable object&amp;gt;&amp;gt;&lt;/div&gt;&lt;div&gt;Skill_APS&lt;/div&gt;" style="swimlane;fontStyle=0;childLayout=stackLayout;horizontal=1;startSize=30;horizontalStack=0;resizeParent=1;resizeParentMax=0;resizeLast=0;collapsible=1;marginBottom=0;whiteSpace=wrap;html=1;" parent="1" vertex="1">
          <mxGeometry x="330" y="-2879.97" width="210" height="60" as="geometry" />
        </mxCell>
        <mxCell id="7k5xXv0gscj0csPlmndP-159" value="&lt;div&gt;&amp;lt;&amp;lt;scriptable object&amp;gt;&amp;gt;&lt;/div&gt;&lt;div&gt;Skill_Drone&lt;/div&gt;" style="swimlane;fontStyle=0;childLayout=stackLayout;horizontal=1;startSize=30;horizontalStack=0;resizeParent=1;resizeParentMax=0;resizeLast=0;collapsible=1;marginBottom=0;whiteSpace=wrap;html=1;" parent="1" vertex="1">
          <mxGeometry x="330" y="-2799.97" width="210" height="60" as="geometry" />
        </mxCell>
        <mxCell id="7k5xXv0gscj0csPlmndP-161" value="&lt;div&gt;&amp;lt;&amp;lt;scriptable object&amp;gt;&amp;gt;&lt;/div&gt;&lt;div&gt;Skill_Smoke&lt;/div&gt;" style="swimlane;fontStyle=0;childLayout=stackLayout;horizontal=1;startSize=30;horizontalStack=0;resizeParent=1;resizeParentMax=0;resizeLast=0;collapsible=1;marginBottom=0;whiteSpace=wrap;html=1;" parent="1" vertex="1">
          <mxGeometry x="330" y="-3039.97" width="210" height="60" as="geometry" />
        </mxCell>
        <mxCell id="7k5xXv0gscj0csPlmndP-162" value="&lt;div&gt;&amp;lt;&amp;lt;scriptable object&amp;gt;&amp;gt;&lt;/div&gt;&lt;div&gt;Skill_WP&lt;/div&gt;" style="swimlane;fontStyle=0;childLayout=stackLayout;horizontal=1;startSize=30;horizontalStack=0;resizeParent=1;resizeParentMax=0;resizeLast=0;collapsible=1;marginBottom=0;whiteSpace=wrap;html=1;" parent="1" vertex="1">
          <mxGeometry x="330" y="-2959.97" width="210" height="60" as="geometry" />
        </mxCell>
        <mxCell id="7k5xXv0gscj0csPlmndP-163" value="Projectile" style="swimlane;fontStyle=0;childLayout=stackLayout;horizontal=1;startSize=30;horizontalStack=0;resizeParent=1;resizeParentMax=0;resizeLast=0;collapsible=1;marginBottom=0;whiteSpace=wrap;html=1;" parent="1" vertex="1">
          <mxGeometry x="1315" y="-2769.68" width="230" height="120" as="geometry" />
        </mxCell>
        <mxCell id="7k5xXv0gscj0csPlmndP-173" value="-Explosion()" style="text;strokeColor=none;fillColor=default;align=left;verticalAlign=middle;spacingLeft=4;spacingRight=4;overflow=hidden;points=[[0,0.5],[1,0.5]];portConstraint=eastwest;rotatable=0;whiteSpace=wrap;html=1;" parent="7k5xXv0gscj0csPlmndP-163" vertex="1">
          <mxGeometry y="30" width="230" height="30" as="geometry" />
        </mxCell>
        <mxCell id="7k5xXv0gscj0csPlmndP-174" value="+SetUp_Skill_WP()" style="text;strokeColor=none;fillColor=default;align=left;verticalAlign=middle;spacingLeft=4;spacingRight=4;overflow=hidden;points=[[0,0.5],[1,0.5]];portConstraint=eastwest;rotatable=0;whiteSpace=wrap;html=1;" parent="7k5xXv0gscj0csPlmndP-163" vertex="1">
          <mxGeometry y="60" width="230" height="30" as="geometry" />
        </mxCell>
        <mxCell id="7k5xXv0gscj0csPlmndP-175" value="+SetUp_Skill_APS(float, ExplosionType)" style="text;strokeColor=none;fillColor=default;align=left;verticalAlign=middle;spacingLeft=4;spacingRight=4;overflow=hidden;points=[[0,0.5],[1,0.5]];portConstraint=eastwest;rotatable=0;whiteSpace=wrap;html=1;" parent="7k5xXv0gscj0csPlmndP-163" vertex="1">
          <mxGeometry y="90" width="230" height="30" as="geometry" />
        </mxCell>
        <mxCell id="7k5xXv0gscj0csPlmndP-176" value="Skill_Drone_Around_Attack" style="swimlane;fontStyle=0;childLayout=stackLayout;horizontal=1;startSize=30;horizontalStack=0;resizeParent=1;resizeParentMax=0;resizeLast=0;collapsible=1;marginBottom=0;whiteSpace=wrap;html=1;" parent="1" vertex="1">
          <mxGeometry x="1325.5" y="-2549.97" width="210" height="150" as="geometry" />
        </mxCell>
        <mxCell id="7k5xXv0gscj0csPlmndP-178" value="+SetNum(int)" style="text;strokeColor=none;fillColor=default;align=left;verticalAlign=middle;spacingLeft=4;spacingRight=4;overflow=hidden;points=[[0,0.5],[1,0.5]];portConstraint=eastwest;rotatable=0;whiteSpace=wrap;html=1;" parent="7k5xXv0gscj0csPlmndP-176" vertex="1">
          <mxGeometry y="30" width="210" height="30" as="geometry" />
        </mxCell>
        <mxCell id="7k5xXv0gscj0csPlmndP-187" value="-DriveAround()" style="text;strokeColor=none;fillColor=default;align=left;verticalAlign=middle;spacingLeft=4;spacingRight=4;overflow=hidden;points=[[0,0.5],[1,0.5]];portConstraint=eastwest;rotatable=0;whiteSpace=wrap;html=1;" parent="7k5xXv0gscj0csPlmndP-176" vertex="1">
          <mxGeometry y="60" width="210" height="30" as="geometry" />
        </mxCell>
        <mxCell id="7k5xXv0gscj0csPlmndP-188" value="-Attack()" style="text;strokeColor=none;fillColor=default;align=left;verticalAlign=middle;spacingLeft=4;spacingRight=4;overflow=hidden;points=[[0,0.5],[1,0.5]];portConstraint=eastwest;rotatable=0;whiteSpace=wrap;html=1;" parent="7k5xXv0gscj0csPlmndP-176" vertex="1">
          <mxGeometry y="90" width="210" height="30" as="geometry" />
        </mxCell>
        <mxCell id="7k5xXv0gscj0csPlmndP-189" value="+DestroyThis()" style="text;strokeColor=none;fillColor=default;align=left;verticalAlign=middle;spacingLeft=4;spacingRight=4;overflow=hidden;points=[[0,0.5],[1,0.5]];portConstraint=eastwest;rotatable=0;whiteSpace=wrap;html=1;" parent="7k5xXv0gscj0csPlmndP-176" vertex="1">
          <mxGeometry y="120" width="210" height="30" as="geometry" />
        </mxCell>
        <mxCell id="7k5xXv0gscj0csPlmndP-190" value="Skill_Drone_Around_Recon" style="swimlane;fontStyle=0;childLayout=stackLayout;horizontal=1;startSize=30;horizontalStack=0;resizeParent=1;resizeParentMax=0;resizeLast=0;collapsible=1;marginBottom=0;whiteSpace=wrap;html=1;" parent="1" vertex="1">
          <mxGeometry x="1325.5" y="-2329.97" width="210" height="60" as="geometry" />
        </mxCell>
        <mxCell id="7k5xXv0gscj0csPlmndP-191" value="-DriveAround()" style="text;strokeColor=none;fillColor=default;align=left;verticalAlign=middle;spacingLeft=4;spacingRight=4;overflow=hidden;points=[[0,0.5],[1,0.5]];portConstraint=eastwest;rotatable=0;whiteSpace=wrap;html=1;" parent="7k5xXv0gscj0csPlmndP-190" vertex="1">
          <mxGeometry y="30" width="210" height="30" as="geometry" />
        </mxCell>
        <mxCell id="7k5xXv0gscj0csPlmndP-195" value="Skill_Drone_Around_Suicide" style="swimlane;fontStyle=0;childLayout=stackLayout;horizontal=1;startSize=30;horizontalStack=0;resizeParent=1;resizeParentMax=0;resizeLast=0;collapsible=1;marginBottom=0;whiteSpace=wrap;html=1;" parent="1" vertex="1">
          <mxGeometry x="1325.5" y="-2189.82" width="210" height="60" as="geometry" />
        </mxCell>
        <mxCell id="7k5xXv0gscj0csPlmndP-196" value="+SetInit(Transform, Transform)" style="text;strokeColor=none;fillColor=default;align=left;verticalAlign=middle;spacingLeft=4;spacingRight=4;overflow=hidden;points=[[0,0.5],[1,0.5]];portConstraint=eastwest;rotatable=0;whiteSpace=wrap;html=1;" parent="7k5xXv0gscj0csPlmndP-195" vertex="1">
          <mxGeometry y="30" width="210" height="30" as="geometry" />
        </mxCell>
        <mxCell id="7k5xXv0gscj0csPlmndP-197" value="Projectile" style="swimlane;fontStyle=0;childLayout=stackLayout;horizontal=1;startSize=30;horizontalStack=0;resizeParent=1;resizeParentMax=0;resizeLast=0;collapsible=1;marginBottom=0;whiteSpace=wrap;html=1;" parent="1" vertex="1">
          <mxGeometry x="1315" y="-3129.97" width="230" height="120" as="geometry" />
        </mxCell>
        <mxCell id="7k5xXv0gscj0csPlmndP-198" value="-Explosion()" style="text;strokeColor=none;fillColor=default;align=left;verticalAlign=middle;spacingLeft=4;spacingRight=4;overflow=hidden;points=[[0,0.5],[1,0.5]];portConstraint=eastwest;rotatable=0;whiteSpace=wrap;html=1;" parent="7k5xXv0gscj0csPlmndP-197" vertex="1">
          <mxGeometry y="30" width="230" height="30" as="geometry" />
        </mxCell>
        <mxCell id="7k5xXv0gscj0csPlmndP-199" value="+SetUp_Skill_WP()" style="text;strokeColor=none;fillColor=default;align=left;verticalAlign=middle;spacingLeft=4;spacingRight=4;overflow=hidden;points=[[0,0.5],[1,0.5]];portConstraint=eastwest;rotatable=0;whiteSpace=wrap;html=1;" parent="7k5xXv0gscj0csPlmndP-197" vertex="1">
          <mxGeometry y="60" width="230" height="30" as="geometry" />
        </mxCell>
        <mxCell id="7k5xXv0gscj0csPlmndP-200" value="+SetUp_Skill_APS(float, ExplosionType)" style="text;strokeColor=none;fillColor=default;align=left;verticalAlign=middle;spacingLeft=4;spacingRight=4;overflow=hidden;points=[[0,0.5],[1,0.5]];portConstraint=eastwest;rotatable=0;whiteSpace=wrap;html=1;" parent="7k5xXv0gscj0csPlmndP-197" vertex="1">
          <mxGeometry y="90" width="230" height="30" as="geometry" />
        </mxCell>
        <mxCell id="7k5xXv0gscj0csPlmndP-201" value="Skill_Smoke_Gas" style="swimlane;fontStyle=0;childLayout=stackLayout;horizontal=1;startSize=30;horizontalStack=0;resizeParent=1;resizeParentMax=0;resizeLast=0;collapsible=1;marginBottom=0;whiteSpace=wrap;html=1;" parent="1" vertex="1">
          <mxGeometry x="1315" y="-3479.97" width="210" height="120" as="geometry" />
        </mxCell>
        <mxCell id="7k5xXv0gscj0csPlmndP-202" value="+SetInit(float, bool)" style="text;strokeColor=none;fillColor=default;align=left;verticalAlign=middle;spacingLeft=4;spacingRight=4;overflow=hidden;points=[[0,0.5],[1,0.5]];portConstraint=eastwest;rotatable=0;whiteSpace=wrap;html=1;" parent="7k5xXv0gscj0csPlmndP-201" vertex="1">
          <mxGeometry y="30" width="210" height="30" as="geometry" />
        </mxCell>
        <mxCell id="7k5xXv0gscj0csPlmndP-203" value="-DestroyThis()" style="text;strokeColor=none;fillColor=default;align=left;verticalAlign=middle;spacingLeft=4;spacingRight=4;overflow=hidden;points=[[0,0.5],[1,0.5]];portConstraint=eastwest;rotatable=0;whiteSpace=wrap;html=1;" parent="7k5xXv0gscj0csPlmndP-201" vertex="1">
          <mxGeometry y="60" width="210" height="30" as="geometry" />
        </mxCell>
        <mxCell id="7k5xXv0gscj0csPlmndP-204" value="-OnTriggerStay(Collider)" style="text;strokeColor=none;fillColor=default;align=left;verticalAlign=middle;spacingLeft=4;spacingRight=4;overflow=hidden;points=[[0,0.5],[1,0.5]];portConstraint=eastwest;rotatable=0;whiteSpace=wrap;html=1;" parent="7k5xXv0gscj0csPlmndP-201" vertex="1">
          <mxGeometry y="90" width="210" height="30" as="geometry" />
        </mxCell>
        <mxCell id="7k5xXv0gscj0csPlmndP-205" value="Destroy_time" style="swimlane;fontStyle=0;childLayout=stackLayout;horizontal=1;startSize=30;horizontalStack=0;resizeParent=1;resizeParentMax=0;resizeLast=0;collapsible=1;marginBottom=0;whiteSpace=wrap;html=1;" parent="1" vertex="1">
          <mxGeometry x="1640" y="-2939.83" width="230" height="60" as="geometry" />
        </mxCell>
        <mxCell id="7k5xXv0gscj0csPlmndP-209" value="Skill_WP_Floor" style="swimlane;fontStyle=0;childLayout=stackLayout;horizontal=1;startSize=30;horizontalStack=0;resizeParent=1;resizeParentMax=0;resizeLast=0;collapsible=1;marginBottom=0;whiteSpace=wrap;html=1;" parent="1" vertex="1">
          <mxGeometry x="1640" y="-3099.9799999999996" width="230" height="60" as="geometry" />
        </mxCell>
        <mxCell id="7k5xXv0gscj0csPlmndP-224" value="Health_Obstacle: Helth" style="swimlane;fontStyle=0;childLayout=stackLayout;horizontal=1;startSize=30;horizontalStack=0;resizeParent=1;resizeParentMax=0;resizeLast=0;collapsible=1;marginBottom=0;whiteSpace=wrap;html=1;" parent="1" vertex="1">
          <mxGeometry x="1650" y="-4219.97" width="210" height="60" as="geometry" />
        </mxCell>
        <mxCell id="7k5xXv0gscj0csPlmndP-226" value="#Dead()" style="text;strokeColor=none;fillColor=default;align=left;verticalAlign=middle;spacingLeft=4;spacingRight=4;overflow=hidden;points=[[0,0.5],[1,0.5]];portConstraint=eastwest;rotatable=0;whiteSpace=wrap;html=1;" parent="7k5xXv0gscj0csPlmndP-224" vertex="1">
          <mxGeometry y="30" width="210" height="30" as="geometry" />
        </mxCell>
        <mxCell id="7k5xXv0gscj0csPlmndP-237" value="" style="endArrow=open;endFill=0;html=1;rounded=0;" parent="1" source="0xGlbApnoTyR-Ioo5-qS-25" target="0xGlbApnoTyR-Ioo5-qS-37" edge="1">
          <mxGeometry width="160" relative="1" as="geometry">
            <mxPoint x="-527" y="-3936.47" as="sourcePoint" />
            <mxPoint x="-527" y="-3840.47" as="targetPoint" />
            <Array as="points" />
          </mxGeometry>
        </mxCell>
        <mxCell id="7k5xXv0gscj0csPlmndP-238" value="" style="endArrow=block;endFill=0;endSize=12;html=1;rounded=0;" parent="1" source="0xGlbApnoTyR-Ioo5-qS-37" target="0xGlbApnoTyR-Ioo5-qS-51" edge="1">
          <mxGeometry width="160" relative="1" as="geometry">
            <mxPoint x="-499" y="-3936.47" as="sourcePoint" />
            <mxPoint x="-390" y="-3820.47" as="targetPoint" />
          </mxGeometry>
        </mxCell>
        <mxCell id="7k5xXv0gscj0csPlmndP-239" value="" style="endArrow=open;endFill=0;html=1;rounded=0;" parent="1" source="0xGlbApnoTyR-Ioo5-qS-37" target="7k5xXv0gscj0csPlmndP-214" edge="1">
          <mxGeometry width="160" relative="1" as="geometry">
            <mxPoint x="-362" y="-3940.47" as="sourcePoint" />
            <mxPoint x="-362" y="-3820.47" as="targetPoint" />
            <Array as="points" />
          </mxGeometry>
        </mxCell>
        <mxCell id="7k5xXv0gscj0csPlmndP-240" value="" style="endArrow=open;endFill=0;html=1;rounded=0;" parent="1" source="0xGlbApnoTyR-Ioo5-qS-25" target="0xGlbApnoTyR-Ioo5-qS-51" edge="1">
          <mxGeometry width="160" relative="1" as="geometry">
            <mxPoint x="-422" y="-3969.47" as="sourcePoint" />
            <mxPoint x="-467" y="-3967.47" as="targetPoint" />
          </mxGeometry>
        </mxCell>
        <mxCell id="7k5xXv0gscj0csPlmndP-241" value="" style="endArrow=block;endFill=0;endSize=12;html=1;rounded=0;exitX=1;exitY=0.5;exitDx=0;exitDy=0;" parent="1" source="7k5xXv0gscj0csPlmndP-68" target="7k5xXv0gscj0csPlmndP-62" edge="1">
          <mxGeometry width="160" relative="1" as="geometry">
            <mxPoint x="83" y="-4066.97" as="sourcePoint" />
            <mxPoint x="237" y="-3992.97" as="targetPoint" />
          </mxGeometry>
        </mxCell>
        <mxCell id="7k5xXv0gscj0csPlmndP-242" value="" style="endArrow=block;endFill=0;endSize=12;html=1;rounded=0;exitX=1;exitY=0.5;exitDx=0;exitDy=0;" parent="1" source="7k5xXv0gscj0csPlmndP-72" target="7k5xXv0gscj0csPlmndP-62" edge="1">
          <mxGeometry width="160" relative="1" as="geometry">
            <mxPoint x="83" y="-3960.97" as="sourcePoint" />
            <mxPoint x="237" y="-3963.97" as="targetPoint" />
          </mxGeometry>
        </mxCell>
        <mxCell id="7k5xXv0gscj0csPlmndP-243" value="" style="endArrow=block;endFill=0;endSize=12;html=1;rounded=0;exitX=1;exitY=0.5;exitDx=0;exitDy=0;" parent="1" source="7k5xXv0gscj0csPlmndP-76" target="7k5xXv0gscj0csPlmndP-62" edge="1">
          <mxGeometry width="160" relative="1" as="geometry">
            <mxPoint x="82" y="-3854.97" as="sourcePoint" />
            <mxPoint x="238" y="-3934.97" as="targetPoint" />
          </mxGeometry>
        </mxCell>
        <mxCell id="7k5xXv0gscj0csPlmndP-244" value="" style="endArrow=open;endFill=0;html=1;rounded=0;entryX=0;entryY=0.5;entryDx=0;entryDy=0;" parent="1" source="0xGlbApnoTyR-Ioo5-qS-56" target="7k5xXv0gscj0csPlmndP-215" edge="1">
          <mxGeometry width="160" relative="1" as="geometry">
            <mxPoint x="-227" y="-3933.97" as="sourcePoint" />
            <mxPoint x="-57" y="-3859.97" as="targetPoint" />
          </mxGeometry>
        </mxCell>
        <mxCell id="7k5xXv0gscj0csPlmndP-245" value="" style="endArrow=open;endFill=0;html=1;rounded=0;entryX=0;entryY=0.5;entryDx=0;entryDy=0;" parent="1" source="0xGlbApnoTyR-Ioo5-qS-56" target="7k5xXv0gscj0csPlmndP-216" edge="1">
          <mxGeometry width="160" relative="1" as="geometry">
            <mxPoint x="-227" y="-3959.97" as="sourcePoint" />
            <mxPoint x="-57" y="-3959.97" as="targetPoint" />
          </mxGeometry>
        </mxCell>
        <mxCell id="7k5xXv0gscj0csPlmndP-246" value="" style="endArrow=open;endFill=0;html=1;rounded=0;entryX=0;entryY=0.5;entryDx=0;entryDy=0;" parent="1" source="0xGlbApnoTyR-Ioo5-qS-56" target="7k5xXv0gscj0csPlmndP-217" edge="1">
          <mxGeometry width="160" relative="1" as="geometry">
            <mxPoint x="-227" y="-3985.97" as="sourcePoint" />
            <mxPoint x="-57" y="-4059.97" as="targetPoint" />
          </mxGeometry>
        </mxCell>
        <mxCell id="7k5xXv0gscj0csPlmndP-247" value="" style="endArrow=open;html=1;rounded=0;dashed=1;endFill=0;" parent="1" source="7k5xXv0gscj0csPlmndP-72" target="7k5xXv0gscj0csPlmndP-68" edge="1">
          <mxGeometry width="50" height="50" relative="1" as="geometry">
            <mxPoint x="15" y="-3980.08" as="sourcePoint" />
            <mxPoint x="15" y="-4055.0799999999995" as="targetPoint" />
          </mxGeometry>
        </mxCell>
        <mxCell id="7k5xXv0gscj0csPlmndP-248" value="" style="endArrow=open;html=1;rounded=0;dashed=1;endFill=0;" parent="1" source="0xGlbApnoTyR-Ioo5-qS-72" target="7k5xXv0gscj0csPlmndP-62" edge="1">
          <mxGeometry width="50" height="50" relative="1" as="geometry">
            <mxPoint x="-170" y="-3478.97" as="sourcePoint" />
            <mxPoint x="-456" y="-3396.97" as="targetPoint" />
          </mxGeometry>
        </mxCell>
        <mxCell id="7k5xXv0gscj0csPlmndP-249" value="" style="endArrow=open;html=1;rounded=0;dashed=1;endFill=0;" parent="1" source="0xGlbApnoTyR-Ioo5-qS-72" target="0xGlbApnoTyR-Ioo5-qS-91" edge="1">
          <mxGeometry width="50" height="50" relative="1" as="geometry">
            <mxPoint x="1233" y="-4889.97" as="sourcePoint" />
            <mxPoint x="1593" y="-4829.97" as="targetPoint" />
          </mxGeometry>
        </mxCell>
        <mxCell id="7k5xXv0gscj0csPlmndP-250" value="" style="endArrow=block;endFill=0;endSize=12;html=1;rounded=0;" parent="1" source="0xGlbApnoTyR-Ioo5-qS-112" target="7k5xXv0gscj0csPlmndP-13" edge="1">
          <mxGeometry width="160" relative="1" as="geometry">
            <mxPoint x="1233" y="-4819.97" as="sourcePoint" />
            <mxPoint x="1373" y="-4763.97" as="targetPoint" />
          </mxGeometry>
        </mxCell>
        <mxCell id="7k5xXv0gscj0csPlmndP-251" value="" style="endArrow=open;html=1;rounded=0;dashed=1;endFill=0;" parent="1" source="7k5xXv0gscj0csPlmndP-33" target="7k5xXv0gscj0csPlmndP-13" edge="1">
          <mxGeometry width="50" height="50" relative="1" as="geometry">
            <mxPoint x="1290" y="-3778.97" as="sourcePoint" />
            <mxPoint x="1430" y="-3834.97" as="targetPoint" />
          </mxGeometry>
        </mxCell>
        <mxCell id="7k5xXv0gscj0csPlmndP-252" value="" style="endArrow=open;html=1;rounded=0;dashed=1;endFill=0;" parent="1" source="7k5xXv0gscj0csPlmndP-41" target="7k5xXv0gscj0csPlmndP-13" edge="1">
          <mxGeometry width="50" height="50" relative="1" as="geometry">
            <mxPoint x="1290" y="-3698.97" as="sourcePoint" />
            <mxPoint x="1453" y="-3828.97" as="targetPoint" />
          </mxGeometry>
        </mxCell>
        <mxCell id="7k5xXv0gscj0csPlmndP-253" value="" style="endArrow=block;endFill=0;endSize=12;html=1;rounded=0;" parent="1" source="0xGlbApnoTyR-Ioo5-qS-91" target="7k5xXv0gscj0csPlmndP-13" edge="1">
          <mxGeometry width="160" relative="1" as="geometry">
            <mxPoint x="1593" y="-4663.97" as="sourcePoint" />
            <mxPoint x="1493" y="-4710.97" as="targetPoint" />
          </mxGeometry>
        </mxCell>
        <mxCell id="7k5xXv0gscj0csPlmndP-256" value="" style="endArrow=open;html=1;rounded=0;dashed=1;endFill=0;entryX=1;entryY=0.5;entryDx=0;entryDy=0;" parent="1" source="7k5xXv0gscj0csPlmndP-78" target="7k5xXv0gscj0csPlmndP-148" edge="1">
          <mxGeometry width="50" height="50" relative="1" as="geometry">
            <mxPoint x="1143" y="-2952.97" as="sourcePoint" />
            <mxPoint x="1393" y="-2762.97" as="targetPoint" />
          </mxGeometry>
        </mxCell>
        <mxCell id="7k5xXv0gscj0csPlmndP-257" value="" style="endArrow=open;html=1;rounded=0;dashed=1;endFill=0;entryX=1;entryY=0.5;entryDx=0;entryDy=0;" parent="1" source="7k5xXv0gscj0csPlmndP-101" target="7k5xXv0gscj0csPlmndP-159" edge="1">
          <mxGeometry width="50" height="50" relative="1" as="geometry">
            <mxPoint x="1153" y="-2812.97" as="sourcePoint" />
            <mxPoint x="1383" y="-2672.97" as="targetPoint" />
          </mxGeometry>
        </mxCell>
        <mxCell id="7k5xXv0gscj0csPlmndP-258" value="" style="endArrow=open;html=1;rounded=0;dashed=1;endFill=0;entryX=1;entryY=0.5;entryDx=0;entryDy=0;" parent="1" source="7k5xXv0gscj0csPlmndP-126" target="7k5xXv0gscj0csPlmndP-161" edge="1">
          <mxGeometry width="50" height="50" relative="1" as="geometry">
            <mxPoint x="1163" y="-2495.97" as="sourcePoint" />
            <mxPoint x="1373" y="-2538.97" as="targetPoint" />
          </mxGeometry>
        </mxCell>
        <mxCell id="7k5xXv0gscj0csPlmndP-259" value="" style="endArrow=open;html=1;rounded=0;dashed=1;endFill=0;entryX=1;entryY=0.5;entryDx=0;entryDy=0;" parent="1" source="7k5xXv0gscj0csPlmndP-137" target="7k5xXv0gscj0csPlmndP-162" edge="1">
          <mxGeometry width="50" height="50" relative="1" as="geometry">
            <mxPoint x="1163" y="-2339.97" as="sourcePoint" />
            <mxPoint x="1373" y="-2435.97" as="targetPoint" />
          </mxGeometry>
        </mxCell>
        <mxCell id="7k5xXv0gscj0csPlmndP-260" value="" style="endArrow=block;endFill=0;endSize=12;html=1;rounded=0;entryX=1;entryY=0.5;entryDx=0;entryDy=0;" parent="1" source="7k5xXv0gscj0csPlmndP-78" target="7k5xXv0gscj0csPlmndP-88" edge="1">
          <mxGeometry width="160" relative="1" as="geometry">
            <mxPoint x="1108" y="-3099.97" as="sourcePoint" />
            <mxPoint x="1318" y="-3099.97" as="targetPoint" />
          </mxGeometry>
        </mxCell>
        <mxCell id="7k5xXv0gscj0csPlmndP-261" value="" style="endArrow=block;endFill=0;endSize=12;html=1;rounded=0;entryX=1;entryY=0.5;entryDx=0;entryDy=0;" parent="1" source="7k5xXv0gscj0csPlmndP-101" target="7k5xXv0gscj0csPlmndP-89" edge="1">
          <mxGeometry width="160" relative="1" as="geometry">
            <mxPoint x="1108" y="-2984.97" as="sourcePoint" />
            <mxPoint x="1318" y="-3074.97" as="targetPoint" />
          </mxGeometry>
        </mxCell>
        <mxCell id="7k5xXv0gscj0csPlmndP-262" value="" style="endArrow=block;endFill=0;endSize=12;html=1;rounded=0;" parent="1" source="7k5xXv0gscj0csPlmndP-126" target="7k5xXv0gscj0csPlmndP-82" edge="1">
          <mxGeometry width="160" relative="1" as="geometry">
            <mxPoint x="1068" y="-2629.97" as="sourcePoint" />
            <mxPoint x="1358" y="-3069.97" as="targetPoint" />
          </mxGeometry>
        </mxCell>
        <mxCell id="7k5xXv0gscj0csPlmndP-263" value="" style="endArrow=block;endFill=0;endSize=12;html=1;rounded=0;entryX=1;entryY=0.5;entryDx=0;entryDy=0;" parent="1" source="7k5xXv0gscj0csPlmndP-137" target="7k5xXv0gscj0csPlmndP-87" edge="1">
          <mxGeometry width="160" relative="1" as="geometry">
            <mxPoint x="1063" y="-2459.97" as="sourcePoint" />
            <mxPoint x="1363" y="-3069.97" as="targetPoint" />
          </mxGeometry>
        </mxCell>
        <mxCell id="7k5xXv0gscj0csPlmndP-264" value="" style="endArrow=open;endFill=0;html=1;rounded=0;entryX=0;entryY=0.5;entryDx=0;entryDy=0;" parent="1" source="7k5xXv0gscj0csPlmndP-101" target="7k5xXv0gscj0csPlmndP-230" edge="1">
          <mxGeometry width="160" relative="1" as="geometry">
            <mxPoint x="823" y="-3978.47" as="sourcePoint" />
            <mxPoint x="603" y="-3978.47" as="targetPoint" />
          </mxGeometry>
        </mxCell>
        <mxCell id="7k5xXv0gscj0csPlmndP-265" value="" style="endArrow=open;html=1;rounded=0;dashed=1;endFill=0;" parent="1" source="7k5xXv0gscj0csPlmndP-176" target="7k5xXv0gscj0csPlmndP-101" edge="1">
          <mxGeometry width="50" height="50" relative="1" as="geometry">
            <mxPoint x="583" y="-3978.47" as="sourcePoint" />
            <mxPoint x="823" y="-3978.47" as="targetPoint" />
          </mxGeometry>
        </mxCell>
        <mxCell id="4FCEO4CRvVQfQdeVHrCK-6" value="Delegate" style="edgeLabel;html=1;align=center;verticalAlign=middle;resizable=0;points=[];" vertex="1" connectable="0" parent="7k5xXv0gscj0csPlmndP-265">
          <mxGeometry x="-0.4999" y="-3" relative="1" as="geometry">
            <mxPoint as="offset" />
          </mxGeometry>
        </mxCell>
        <mxCell id="7k5xXv0gscj0csPlmndP-267" value="" style="endArrow=open;endFill=0;html=1;rounded=0;" parent="1" source="7k5xXv0gscj0csPlmndP-78" target="7k5xXv0gscj0csPlmndP-229" edge="1">
          <mxGeometry width="160" relative="1" as="geometry">
            <mxPoint x="823" y="-4118.469999999999" as="sourcePoint" />
            <mxPoint x="603" y="-4118.469999999999" as="targetPoint" />
          </mxGeometry>
        </mxCell>
        <mxCell id="7k5xXv0gscj0csPlmndP-268" value="" style="endArrow=open;endFill=0;html=1;rounded=0;" parent="1" source="7k5xXv0gscj0csPlmndP-101" target="7k5xXv0gscj0csPlmndP-231" edge="1">
          <mxGeometry width="160" relative="1" as="geometry">
            <mxPoint x="823" y="-3958.47" as="sourcePoint" />
            <mxPoint x="603" y="-3885.47" as="targetPoint" />
          </mxGeometry>
        </mxCell>
        <mxCell id="7k5xXv0gscj0csPlmndP-269" value="" style="endArrow=open;endFill=0;html=1;rounded=0;" parent="1" source="7k5xXv0gscj0csPlmndP-101" target="7k5xXv0gscj0csPlmndP-232" edge="1">
          <mxGeometry width="160" relative="1" as="geometry">
            <mxPoint x="838" y="-3948.47" as="sourcePoint" />
            <mxPoint x="598" y="-3787.47" as="targetPoint" />
          </mxGeometry>
        </mxCell>
        <mxCell id="7k5xXv0gscj0csPlmndP-270" value="" style="endArrow=open;endFill=0;html=1;rounded=0;" parent="1" source="7k5xXv0gscj0csPlmndP-126" target="7k5xXv0gscj0csPlmndP-233" edge="1">
          <mxGeometry width="160" relative="1" as="geometry">
            <mxPoint x="813" y="-3485.47" as="sourcePoint" />
            <mxPoint x="593" y="-3472.47" as="targetPoint" />
          </mxGeometry>
        </mxCell>
        <mxCell id="7k5xXv0gscj0csPlmndP-271" value="" style="endArrow=open;html=1;rounded=0;dashed=1;endFill=0;" parent="1" source="7k5xXv0gscj0csPlmndP-126" target="7k5xXv0gscj0csPlmndP-201" edge="1">
          <mxGeometry width="50" height="50" relative="1" as="geometry">
            <mxPoint x="813" y="-3485.47" as="sourcePoint" />
            <mxPoint x="573" y="-3471.47" as="targetPoint" />
          </mxGeometry>
        </mxCell>
        <mxCell id="7k5xXv0gscj0csPlmndP-272" value="" style="endArrow=open;endFill=0;html=1;rounded=0;" parent="1" source="7k5xXv0gscj0csPlmndP-137" target="7k5xXv0gscj0csPlmndP-234" edge="1">
          <mxGeometry width="160" relative="1" as="geometry">
            <mxPoint x="683" y="-2849.97" as="sourcePoint" />
            <mxPoint x="463" y="-2849.97" as="targetPoint" />
          </mxGeometry>
        </mxCell>
        <mxCell id="7k5xXv0gscj0csPlmndP-273" value="" style="endArrow=open;endFill=0;html=1;rounded=0;" parent="1" source="7k5xXv0gscj0csPlmndP-197" target="7k5xXv0gscj0csPlmndP-235" edge="1">
          <mxGeometry width="160" relative="1" as="geometry">
            <mxPoint x="2053" y="-2829.8299999999995" as="sourcePoint" />
            <mxPoint x="1983" y="-2829.8299999999995" as="targetPoint" />
          </mxGeometry>
        </mxCell>
        <mxCell id="7k5xXv0gscj0csPlmndP-274" value="" style="endArrow=open;html=1;rounded=0;dashed=1;endFill=0;entryX=0;entryY=0.5;entryDx=0;entryDy=0;" parent="1" source="7k5xXv0gscj0csPlmndP-197" target="7k5xXv0gscj0csPlmndP-205" edge="1">
          <mxGeometry width="50" height="50" relative="1" as="geometry">
            <mxPoint x="2053" y="-2829.8299999999995" as="sourcePoint" />
            <mxPoint x="1963" y="-2829.8299999999995" as="targetPoint" />
          </mxGeometry>
        </mxCell>
        <mxCell id="7k5xXv0gscj0csPlmndP-275" value="" style="endArrow=open;endFill=0;html=1;rounded=0;" parent="1" source="7k5xXv0gscj0csPlmndP-197" target="7k5xXv0gscj0csPlmndP-236" edge="1">
          <mxGeometry width="160" relative="1" as="geometry">
            <mxPoint x="2068" y="-2799.8299999999995" as="sourcePoint" />
            <mxPoint x="1978" y="-2739.8299999999995" as="targetPoint" />
          </mxGeometry>
        </mxCell>
        <mxCell id="7k5xXv0gscj0csPlmndP-277" value="" style="endArrow=open;html=1;rounded=0;dashed=1;endFill=0;" parent="1" source="7k5xXv0gscj0csPlmndP-209" target="0xGlbApnoTyR-Ioo5-qS-91" edge="1">
          <mxGeometry width="50" height="50" relative="1" as="geometry">
            <mxPoint x="-577" y="-1569.97" as="sourcePoint" />
            <mxPoint x="489" y="-2739.97" as="targetPoint" />
          </mxGeometry>
        </mxCell>
        <mxCell id="7k5xXv0gscj0csPlmndP-278" value="" style="endArrow=open;html=1;rounded=0;dashed=1;endFill=0;" parent="1" source="7k5xXv0gscj0csPlmndP-201" target="0xGlbApnoTyR-Ioo5-qS-91" edge="1">
          <mxGeometry width="50" height="50" relative="1" as="geometry">
            <mxPoint x="655" y="-2439.97" as="sourcePoint" />
            <mxPoint x="1507" y="-3319.97" as="targetPoint" />
          </mxGeometry>
        </mxCell>
        <mxCell id="4FCEO4CRvVQfQdeVHrCK-3" value="" style="endArrow=block;endFill=0;endSize=12;html=1;rounded=0;" edge="1" parent="1" source="7k5xXv0gscj0csPlmndP-224" target="7k5xXv0gscj0csPlmndP-13">
          <mxGeometry width="160" relative="1" as="geometry">
            <mxPoint x="1443" y="-3846.97" as="sourcePoint" />
            <mxPoint x="1326" y="-3859.97" as="targetPoint" />
          </mxGeometry>
        </mxCell>
        <mxCell id="4FCEO4CRvVQfQdeVHrCK-4" value="" style="endArrow=open;endFill=0;html=1;rounded=0;" edge="1" parent="1" source="7k5xXv0gscj0csPlmndP-3" target="7k5xXv0gscj0csPlmndP-221">
          <mxGeometry width="160" relative="1" as="geometry">
            <mxPoint x="1903" y="-4463.97" as="sourcePoint" />
            <mxPoint x="1903" y="-4409.97" as="targetPoint" />
          </mxGeometry>
        </mxCell>
      </root>
    </mxGraphModel>
  </diagram>
</mxfile>
